<svg fill="#EC0AAC" xmlns="http://www.w3.org/2000/svg" xmlns:xlink="http://www.w3.org/1999/xlink" version="1.1" x="0px" y="0px" viewBox="0 0 500 500" style="enable-background:new 0 0 500 500;" xml:space="preserve"><style type="text/css">
	.st0{clip-path:url(#b);}
</style><g><defs><ellipse id="a" transform="matrix(0.7071 -0.7071 0.7071 0.7071 -108.4838 258.3756)" cx="257.6" cy="260.1" rx="126.3" ry="45.7"></ellipse></defs><clipPath id="b"><use xlink:href="#a" style="" overflow="visible"></use></clipPath><g class="st0"><polygon points="172.1,284.7 245.9,258.5 215.2,227.8   "></polygon><polygon points="150.9,363.5 240.8,273.6 173.1,295.8   "></polygon><polygon points="159.6,372.2 223,345.7 246.4,285.4   "></polygon><polygon points="236,348.7 290,302.6 261.9,274.6   "></polygon><polygon points="282.2,174.6 256,248.4 225.3,217.7   "></polygon><polygon points="361,153.4 271.1,243.3 293.3,175.6   "></polygon><polygon points="369.7,162.1 343.2,225.5 282.9,248.9   "></polygon><polygon points="346.2,238.5 300.1,292.5 272.1,264.4   "></polygon></g></g><path d="M469.6,365c3.5-13.1,5.4-28.2,5.4-43.6c0-42.3-13.7-85.8-38.6-125.3c2.1-22.7,0.4-44.3-5-64.4c-3.1-10.8-3.3-23.5-0.7-39.9  c2.9-17.5-3-36.1-15.6-48.6c-12.5-12.5-31.2-18.5-48.6-15.6c-16.5,2.6-29.1,2.4-40.1-0.8c-14.3-3.6-29.7-5.4-45.7-5.4  c-62.5,0-128.5,29.7-181.3,81.6c-65.1,65.1-95,153.6-76.2,225.3c3.3,13.1,3.2,27.6-0.1,43.3c-3.9,19.5,1.1,37.9,13.8,50.6  C49.3,434.7,68.7,440,87.5,436c15.7-3.3,30.2-3.3,43.2-0.1c13.3,3.5,28.5,5.4,44.1,5.4c7.1,0,14.5-0.4,22.1-1.2  c39.3,23.8,82.2,36.7,122.6,36.7c15.1,0,29.8-1.8,43.8-5.5c12.9-3.2,27.3-3.2,42.8,0.1c19.3,3.9,37.5-1.1,50-13.7  c12.3-12.3,17.6-31.5,13.6-50.1C466.5,392.2,466.5,377.8,469.6,365z M133.7,424.3c-14.8-3.7-31.2-3.7-48.7,0  c-14.8,3.1-30-0.9-39.6-10.5c-9.8-9.8-13.6-24.2-10.5-39.6c3.7-17.5,3.7-33.8-0.1-48.8c-17.8-67.7,10.9-151.6,73-213.7  C158.3,62,221.3,33.5,280.6,33.5c15.1,0,29.5,1.7,42.6,5c12.5,3.6,26.9,3.9,45.2,1c13.7-2.3,28.3,2.4,38.1,12.2  c9.8,9.8,14.5,24.4,12.2,38.2c-2.9,18.2-2.6,32.6,1,45c3.8,14.1,5.6,29.1,5.4,44.7c-8.7-11.8-18.4-23.2-29.2-34  c-1.9-3.9-4.3-7.3-7.3-10.3c-15.7-15.7-43.9-16.3-79.4-1.8c-33.9,13.9-71,40-104.6,73.6c-33.6,33.6-59.7,70.7-73.6,104.6  c-14.5,35.5-13.9,63.7,1.8,79.4c3,3,6.5,5.5,10.4,7.4c11.7,11.4,24,21.7,36.9,30.7C163.3,429.7,147.6,428,133.7,424.3z M379.3,210.2  c-13.3,32.4-38.5,68.2-70.9,100.6c-32.5,32.5-68.2,57.7-100.6,70.9c-24.2,9.9-44.5,12.1-57.7,6.6c-0.3-0.3-0.6-0.6-0.9-0.9l-0.3,0.3  c-2.9-1.3-5.4-3.1-7.5-5.2c-11.9-11.9-11.5-36,0.9-66.3c13.3-32.4,38.5-68.2,70.9-100.6c32.5-32.5,68.2-57.7,100.6-70.9  c15.5-6.3,29.4-9.5,40.9-9.5c10.9,0,19.6,2.9,25.4,8.7c2.1,2.1,3.8,4.6,5.2,7.5l-0.3,0.3c0.3,0.3,0.6,0.6,0.8,0.8  C391.4,165.8,389.2,186,379.3,210.2z M457.9,410.1c3.1,14.6-0.9,29.6-10.4,39.1c-9.6,9.6-23.9,13.4-39.1,10.4  c-17.3-3.6-33.4-3.6-48.2,0.1c-60.8,15.9-134.8-6-193.9-56.3c0.1,0,0.2,0,0.3,0c13.1,0,28.5-3.5,45.5-10.5  c33.9-13.9,71-40,104.6-73.6s59.7-70.7,73.6-104.6c7.1-17.3,10.6-32.9,10.5-46.2c8.5,9.8,16.2,20,23.1,30.5c0,0.1,0,0.3,0,0.4l0.4,0  c25,38.4,38.7,80.8,38.7,121.9c0,14.3-1.7,28.3-5,40.6C454.3,376.7,454.3,392.9,457.9,410.1z"></path></svg>