<svg fill="#EC0AAC" xmlns="http://www.w3.org/2000/svg" xmlns:xlink="http://www.w3.org/1999/xlink" version="1.1" x="0px" y="0px" viewBox="0 0 100 100" enable-background="new 0 0 100 100" xml:space="preserve"><g><path d="M25.052,20.518c0.168,0.053,0.324,0.054,0.463,0.05l0.104-0.011l0.051-0.007l0.013-0.002l0.066-0.017l0.015-0.003   c0.05-0.016,0.049-0.007,0.161-0.051c0.35-0.156,0.462-0.291,0.619-0.461c0.136-0.165,0.235-0.339,0.306-0.526   c0.126-0.364,0.201-0.813-0.041-1.211c-0.353,0.247-0.626,0.373-0.876,0.533l-0.335,0.208c-0.079,0.052-0.227,0.122-0.174,0.098   c0.04-0.004-0.041,0.019-0.068,0.029L25.34,19.15l-0.003,0.001l-0.002,0c0.018-0.004,0.023-0.005,0.031-0.008   c-0.001,0.001-0.002,0-0.004,0.002c-0.021,0.013-0.031,0.016-0.021,0.031c0.017,0.021,0.069,0.126,0.007,0.144   c-0.124,0.026-0.319-0.252-0.351-0.68c-0.435,0.073-0.817,0.517-0.683,1.15C24.377,20.111,24.715,20.437,25.052,20.518z    M25.393,19.138L25.393,19.138C25.397,19.137,25.396,19.137,25.393,19.138z"></path><path d="M22.451,24.126c0.863,0.449,1.911,0.506,2.838,0.154c0.456-0.182,0.886-0.482,1.203-0.833   c0.378-0.425,0.555-0.838,0.713-1.197c0.146-0.355,0.285-0.662,0.45-0.864c0.159-0.197,0.379-0.339,0.745-0.532   c0.177-0.094,0.371-0.2,0.556-0.327c0.125-0.085,0.168-0.126,0.257-0.191c0.053-0.044,0.104-0.096,0.155-0.145   c-0.374,0.709-0.64,1.404-1.042,1.994c-0.2,0.311-0.445,0.583-0.742,0.808c-0.302,0.213-0.643,0.426-1.047,0.45   c0.815,0.23,1.704-0.213,2.327-0.792c0.627-0.6,1.062-1.323,1.503-1.938c0.106-0.145,0.214-0.281,0.348-0.442   c0.079-0.089,0.194-0.198,0.316-0.284c0.25-0.182,0.575-0.328,0.953-0.518c0.366-0.189,0.831-0.461,1.171-0.964   c0.336-0.517,0.409-1.091,0.365-1.603c-0.057-0.532-0.279-1.05-0.596-1.449c-0.317-0.401-0.698-0.714-1.107-0.938   c-0.817-0.442-1.717-0.652-2.602-0.622c-1.8,0.047-3.307,0.961-4.489,2.03c1.505-0.573,3.023-1.073,4.447-0.904   c0.702,0.094,1.389,0.293,1.941,0.67c0.56,0.358,0.935,0.838,0.963,1.355c0.042,0.61-0.085,0.823-0.764,1.227   c-0.315,0.198-0.708,0.406-1.079,0.727c-0.089,0.078-0.173,0.159-0.253,0.246c0.048-0.142,0.088-0.286,0.104-0.429   c0.042-0.455,0.009-0.866-0.126-1.281c-0.072-0.202-0.171-0.414-0.356-0.563c-0.194-0.154-0.449-0.137-0.62-0.051   c0.449-0.041,0.586,0.349,0.582,0.692c0.007,0.352-0.053,0.737-0.173,1.043c-0.226,0.63-0.758,0.923-1.455,1.168   c-0.346,0.116-0.853,0.313-1.219,0.707c-0.363,0.377-0.567,0.786-0.753,1.133c-0.174,0.343-0.336,0.647-0.49,0.8   c-0.213,0.223-0.448,0.365-0.718,0.47c-1.063,0.468-2.534-0.136-2.865-1.298c-0.169-0.592-0.113-1.33,0.129-2   c0.237-0.675,0.647-1.331,1.345-1.718c-0.816,0.079-1.521,0.7-1.978,1.401c-0.445,0.72-0.732,1.592-0.601,2.541   C20.911,22.842,21.599,23.672,22.451,24.126z"></path><path d="M19.74,24.34c0.444,0.386,0.987,0.692,1.37,0.949c0.362,0.258,0.721,0.627,1.116,1.015   c0.199,0.196,0.418,0.392,0.662,0.578c0.13,0.097,0.239,0.174,0.402,0.276c0.1,0.061,0.257,0.15,0.414,0.223   c0.591,0.281,1.265,0.407,1.913,0.373c1.306-0.098,2.418-0.712,3.314-1.47c0.945-0.832,1.457-1.855,2.081-2.579   c0.314-0.369,0.677-0.655,1.1-0.873l1.463-0.69c0.493-0.257,1.005-0.562,1.386-1.005c0.387-0.437,0.609-0.97,0.726-1.5   c-0.26,0.479-0.593,0.906-1,1.206c-0.408,0.302-0.879,0.49-1.381,0.64c-0.501,0.159-1.022,0.294-1.56,0.473   c-0.577,0.194-1.109,0.551-1.542,0.959c-0.878,0.825-1.396,1.772-2.146,2.311c-0.76,0.602-1.657,1.044-2.523,1.083   c-0.43,0.03-0.85-0.039-1.239-0.213c-0.089-0.038-0.169-0.079-0.301-0.156c-0.066-0.04-0.182-0.114-0.269-0.178   c-0.188-0.137-0.374-0.298-0.574-0.467c-0.399-0.34-0.815-0.733-1.355-1.071c-0.531-0.315-0.959-0.496-1.367-0.776   c-0.4-0.264-0.711-0.595-0.943-0.985c-0.241-0.398-0.367-0.877-0.417-1.372c-0.05-0.486-0.025-1.02,0.19-1.431   c0.231-0.438,0.666-0.795,1.029-1.201c-0.455,0.291-0.964,0.513-1.356,0.972c-0.404,0.488-0.514,1.087-0.572,1.667   c-0.034,0.581,0.035,1.192,0.269,1.766C18.858,23.451,19.278,23.955,19.74,24.34z"></path><path d="M35.254,15.836c0.167,0.18,0.41,0.551,0.56,0.883c0.075,0.172,0.154,0.348,0.179,0.534c0.04,0.19,0.02,0.403-0.125,0.662   c0.294,0.036,0.609-0.157,0.799-0.435c0.181-0.281,0.269-0.61,0.275-0.922c-0.002-0.633-0.167-1.203-0.664-1.748   c-0.438-0.44-1.029-0.706-1.597-0.768c-0.573-0.058-1.131,0.039-1.622,0.339c0.489,0.303,0.917,0.509,1.282,0.744   C34.708,15.354,34.998,15.581,35.254,15.836z"></path><path d="M50.09,10.034c0.246-0.409,0.478-0.591,0.659-0.615c0.164-0.027,0.318-0.031,0.529-0.038   c0.204-0.004,0.433,0.001,0.639,0.018c0.103,0.011,0.206,0.006,0.311,0.055c0.122,0.041,0.229,0.173,0.31,0.398   c0.216-0.095,0.36-0.333,0.367-0.623c-0.006-0.283-0.14-0.568-0.321-0.756c-0.368-0.385-0.853-0.551-1.343-0.542   c-0.479,0.007-1.051,0.234-1.349,0.742C49.595,9.183,49.745,9.762,50.09,10.034z"></path><path d="M47.554,9.853c-0.727-0.115-1.479,0.192-2.095,0.644c-0.306,0.24-0.587,0.536-0.789,0.93   c-0.207,0.385-0.277,0.924-0.107,1.408c0.039,0.12,0.093,0.233,0.153,0.339l0.048,0.079l0.058,0.085l0.081,0.113   c0.174,0.218,0.343,0.354,0.556,0.49c0.417,0.259,0.889,0.358,1.311,0.379c0.853,0.033,1.582-0.185,2.251-0.352   c0.671-0.19,1.207-0.271,1.83-0.245c0.618,0.008,1.292,0.174,2.026,0.23c0.7,0.067,1.564,0.102,2.305-0.328   c0.364-0.213,0.657-0.562,0.772-0.944c0.126-0.379,0.104-0.761,0.024-1.107c-0.134,0.71-0.528,1.293-1.095,1.404   c-0.555,0.161-1.16,0.02-1.816-0.14c-0.644-0.174-1.326-0.376-2.104-0.482c-0.391-0.048-0.778-0.05-1.198-0.01   c-0.377,0.04-0.78,0.132-1.113,0.221c-0.678,0.184-1.311,0.364-1.863,0.385c-0.273,0.014-0.511-0.021-0.704-0.111   c-0.091-0.038-0.198-0.124-0.255-0.167c-0.023-0.019-0.058-0.06-0.086-0.088l-0.023-0.023c0.025,0.032,0,0,0.002,0.003l-0.027-0.03   c-0.034-0.04-0.066-0.08-0.088-0.123c-0.212-0.308-0.062-0.917,0.345-1.408C46.34,10.507,46.875,10.058,47.554,9.853z"></path><path d="M57.149,9.631c0.12,0.097,0.244,0.353,0.335,0.689c0.042,0.161,0.091,0.336,0.099,0.508   c0.015,0.178,0.028,0.36-0.155,0.564c0.259,0.134,0.601-0.042,0.795-0.254c0.198-0.221,0.331-0.481,0.4-0.753   c0.069-0.273,0.082-0.558,0.031-0.857c-0.025-0.149-0.075-0.302-0.147-0.46c-0.087-0.18-0.194-0.308-0.293-0.421   c-0.419-0.458-1.023-0.669-1.535-0.672c-0.522,0-0.986,0.137-1.425,0.428c0.429,0.311,0.842,0.484,1.17,0.679   C56.758,9.269,56.979,9.443,57.149,9.631z"></path><path d="M41.795,15.811c0.296,0.369,0.66,0.625,1.005,0.835c0.355,0.21,0.714,0.384,1.125,0.521   c1.625,0.479,3.141,0.24,4.506,0.325c1.333,0.008,2.621,0.542,4.183,0.806c0.769,0.116,1.696,0.129,2.521-0.29   c0.83-0.405,1.365-1.123,1.729-1.812c0.275-0.581,0.695-0.913,1.331-1.217c0.612-0.299,1.389-0.589,1.973-1.163   c0.562-0.563,0.972-1.259,1.13-2.021c0.086-0.396,0.013-0.803-0.072-1.151c-0.084-0.357-0.224-0.699-0.174-1.063   c-0.199,0.717,0.124,1.504-0.141,2.106c-0.246,0.634-0.68,1.195-1.207,1.59c-0.517,0.4-1.159,0.573-1.88,0.827   c-0.36,0.128-0.74,0.302-1.088,0.564c-0.173,0.13-0.336,0.282-0.48,0.448c-0.07,0.083-0.138,0.167-0.206,0.266l-0.163,0.246   c-0.356,0.557-0.793,1.018-1.296,1.233c-0.497,0.225-1.101,0.212-1.75,0.084c-1.294-0.242-2.751-0.851-4.35-0.9   c-1.524-0.042-2.968,0.142-4.167-0.187c-0.566-0.165-1.23-0.493-1.563-0.867c-0.062-0.072-0.154-0.211-0.166-0.25   c-0.011-0.054-0.024,0.023-0.002-0.068c0.074-0.179,0.388-0.58,0.525-1.013c0.163-0.44,0.16-0.98,0.025-1.399   c-0.126-0.424-0.316-0.75-0.416-1.026c-0.096-0.275-0.106-0.464,0.014-0.71c0.057-0.118,0.151-0.248,0.249-0.358   c0.042-0.053,0.116-0.123,0.178-0.186l0.178-0.164c0.516-0.445,1.135-0.812,1.777-1.098c0.643-0.266,1.355-0.506,2.069-0.316   c-0.669-0.342-1.484-0.241-2.197-0.062c-0.729,0.19-1.42,0.493-2.074,0.91c-0.084,0.057-0.155,0.105-0.247,0.178   c-0.072,0.06-0.138,0.106-0.221,0.186c-0.16,0.145-0.301,0.296-0.427,0.492c-0.274,0.376-0.331,0.974-0.207,1.391   c0.105,0.421,0.262,0.744,0.315,1.026c0.058,0.281,0.034,0.502-0.071,0.74c-0.103,0.261-0.283,0.418-0.556,0.875   c-0.147,0.23-0.207,0.696-0.092,0.987C41.52,15.431,41.636,15.597,41.795,15.811z"></path><path d="M61.722,8.643c0.033,0.009,0.16,0.107,0.279,0.207l0.39,0.325c0.135,0.114,0.286,0.223,0.421,0.342   c0.078,0.056,0.14,0.117,0.206,0.178c0.059,0.063,0.142,0.122,0.117,0.25c0.138,0.003,0.248-0.163,0.283-0.289   c0.046-0.135,0.051-0.265,0.059-0.392c-0.009-0.248-0.047-0.486-0.126-0.704c-0.075-0.221-0.183-0.423-0.318-0.619   c-0.145-0.193-0.297-0.382-0.61-0.565c-0.467-0.249-0.937-0.316-1.404-0.271C60.566,7.16,60.052,7.33,59.783,7.77   c0.466,0.142,0.769,0.312,1.095,0.459C61.19,8.375,61.495,8.518,61.722,8.643z"></path><path d="M40.916,19.913c0.755,0.378,1.593,0.625,2.442,0.707c0.848,0.09,1.687,0.037,2.487-0.054   c0.803-0.091,1.567-0.237,2.316-0.316c0.374-0.041,0.743-0.07,1.107-0.076c0.366-0.011,0.661,0.018,1.008,0.088   c1.358,0.243,2.728,1.146,4.472,1.449c0.853,0.121,1.768,0.1,2.635-0.188c0.433-0.146,0.862-0.368,1.226-0.682   c0.37-0.331,0.611-0.676,0.849-1.054c0.224-0.373,0.405-0.771,0.529-1.205c0.026-0.097,0.064-0.237,0.077-0.336   c0.022-0.151,0.026-0.259,0.03-0.373c0.004-0.222-0.015-0.415-0.013-0.583c0-0.167,0.016-0.306,0.055-0.415   c0.009-0.029,0.024-0.053,0.034-0.08c-0.017,0.018,0.044-0.065,0.061-0.093c0.057-0.068,0.058-0.077,0.126-0.139   c0.219-0.204,0.562-0.361,0.911-0.516c0.351-0.161,0.729-0.308,1.098-0.55c0.089-0.06,0.183-0.129,0.263-0.205   c0.073-0.066,0.144-0.131,0.222-0.216c0.154-0.158,0.272-0.33,0.382-0.512c0.438-0.75,0.418-1.582,0.447-2.355   c-0.175,0.76-0.315,1.565-0.781,2.13c-0.113,0.138-0.244,0.271-0.378,0.379c-0.061,0.054-0.142,0.111-0.223,0.168   c-0.069,0.05-0.14,0.089-0.217,0.128c-0.312,0.154-0.684,0.25-1.062,0.367c-0.379,0.123-0.784,0.246-1.183,0.533   c-0.087,0.055-0.223,0.19-0.293,0.269c-0.04,0.052-0.043,0.044-0.114,0.145c-0.035,0.058-0.075,0.116-0.103,0.178   c-0.125,0.248-0.169,0.504-0.192,0.727l-0.043,0.591c-0.006,0.082-0.02,0.168-0.03,0.212c-0.02,0.093-0.04,0.14-0.071,0.23   c-0.114,0.312-0.282,0.623-0.483,0.907c-0.41,0.59-0.873,0.964-1.506,1.139c-0.632,0.177-1.327,0.175-2.017,0.047   c-1.362-0.243-2.696-1.141-4.425-1.518c-0.421-0.085-0.912-0.12-1.328-0.099c-0.419,0.013-0.83,0.053-1.234,0.103   c-0.808,0.104-1.583,0.245-2.334,0.365c-1.5,0.26-2.929,0.234-4.278-0.322c-1.312-0.542-2.532-1.555-2.796-2.962   c-0.154-0.687,0.02-1.407,0.395-2.066c0.371-0.661,0.883-1.272,1.324-1.923c-0.558,0.554-1.16,1.057-1.658,1.704   c-0.505,0.627-0.843,1.497-0.764,2.376c0.058,0.848,0.462,1.709,1.012,2.354C39.452,19.034,40.161,19.533,40.916,19.913z"></path><path d="M77.574,30.835c0.132-0.238,0.342-0.482,0.871-0.599c-0.124-0.226-0.382-0.384-0.667-0.448   c-0.288-0.053-0.613-0.004-0.884,0.136c-0.546,0.281-0.906,0.812-1.012,1.411c-0.047,0.302-0.035,0.629,0.085,0.945   c0.117,0.314,0.347,0.604,0.63,0.77c0.583,0.332,1.169,0.21,1.575-0.097c-0.436-0.285-0.756-0.537-0.833-0.769   c-0.075-0.211-0.059-0.363-0.027-0.611C77.353,31.334,77.438,31.07,77.574,30.835z"></path><path d="M81.253,33.587c0.648-0.044,1.144-0.597,1.426-1.137c0.271-0.553,0.43-1.243,0.203-1.962   c-0.282-0.804-0.928-1.247-1.549-1.419c-0.629-0.162-1.253-0.111-1.801,0.171c0.521,0.319,0.971,0.57,1.319,0.858   c0.35,0.268,0.563,0.597,0.646,0.815c0.108,0.308,0.12,0.736,0.094,1.201C81.548,32.58,81.521,33.047,81.253,33.587z"></path><path d="M77.917,37.739c-0.201-0.063-0.314-0.112-0.577-0.254c-0.127-0.076-0.311-0.208-0.435-0.341   c-0.278-0.265-0.497-0.646-0.744-1.109c-0.245-0.456-0.539-1.007-1.028-1.448c-0.92-0.799-2.02-1.146-2.327-1.713   c-0.166-0.29-0.183-0.702-0.104-1.179c0.061-0.448,0.241-0.875,0.509-1.252c0.531-0.772,1.476-1.265,2.518-1.385   c-1.029-0.201-2.218,0.101-3.051,0.92c-0.409,0.408-0.723,0.927-0.895,1.493c-0.169,0.52-0.271,1.208,0,1.875   c0.286,0.684,0.847,1.067,1.271,1.363c0.434,0.298,0.854,0.578,1.138,0.87c0.268,0.279,0.49,0.651,0.718,1.112   c0.231,0.454,0.507,1.007,0.972,1.477c0.24,0.237,0.48,0.415,0.805,0.592c0.194,0.104,0.556,0.269,0.856,0.345   c0.626,0.17,1.359,0.15,1.968-0.121c0.614-0.26,1.09-0.69,1.462-1.144c0.41-0.477,0.609-1.018,0.838-1.271   c0.106-0.13,0.261-0.238,0.399-0.286c0.166-0.061,0.391-0.084,0.641-0.107c0.249-0.022,0.525-0.032,0.824-0.087   c0.077-0.014,0.14-0.029,0.236-0.054l0.185-0.06c0.122-0.041,0.287-0.103,0.414-0.167c0.529-0.258,0.981-0.726,1.173-1.26   c0.206-0.531,0.214-1.073,0.192-1.595c-0.128,0.507-0.281,1.013-0.55,1.413c-0.27,0.401-0.645,0.665-1.083,0.782   c-0.113,0.029-0.197,0.053-0.327,0.075l-0.192,0.031l-0.147,0.009c-0.218,0.007-0.463-0.019-0.731-0.036   c-0.267-0.019-0.567-0.027-0.905,0.047c-0.366,0.082-0.667,0.259-0.927,0.495c-0.508,0.491-0.696,0.953-0.997,1.238   c-0.305,0.328-0.654,0.583-1.01,0.702C78.649,37.836,78.291,37.847,77.917,37.739z"></path><path d="M89.167,33.976c0.072-0.466,0.054-0.924-0.063-1.414c-0.116-0.489-0.404-0.959-0.749-1.298   c-0.343-0.349-0.715-0.604-1.043-0.838c-0.331-0.23-0.635-0.432-0.815-0.643c-0.094-0.104-0.157-0.203-0.196-0.307   c-0.044-0.114-0.053-0.168-0.077-0.381c-0.101-0.904-0.441-1.892-1.178-2.598c-0.363-0.347-0.798-0.608-1.246-0.774   c-0.22-0.079-0.453-0.15-0.7-0.197l-0.306-0.041c-0.143-0.02-0.233-0.02-0.354-0.03c-1.793-0.079-3.516,0.655-4.628,1.882   c1.462-0.737,3.065-1.014,4.502-0.762c0.082,0.019,0.194,0.038,0.249,0.056l0.292,0.081c0.147,0.053,0.3,0.107,0.455,0.179   c0.302,0.144,0.558,0.336,0.764,0.569c0.418,0.454,0.652,1.084,0.709,1.785c0.017,0.19,0.079,0.54,0.201,0.798   c0.117,0.271,0.288,0.508,0.473,0.701c0.372,0.385,0.763,0.625,1.109,0.834c0.717,0.406,1.225,0.764,1.462,1.332   c0.226,0.573,0.292,1.44,0.006,1.916c-0.18,0.265-0.513,0.521-0.826,0.746c-0.16,0.115-0.33,0.219-0.506,0.311   c-0.173,0.084-0.358,0.203-0.557,0.151c0.181,0.125,0.421,0.077,0.624,0.057c0.211-0.037,0.415-0.092,0.618-0.159   c0.405-0.145,0.785-0.305,1.17-0.625C88.956,34.904,89.083,34.436,89.167,33.976z"></path><path d="M68.769,28.33c0.048-0.027,0.111-0.067,0.13-0.075c-0.016,0,0.166-0.076,0.147-0.064c0.082-0.025,0.186-0.041,0.318-0.046   c0.27-0.022,0.642,0.018,1.118-0.07c0.476-0.101,0.906-0.339,1.236-0.641c0.325-0.304,0.558-0.628,0.75-0.927   c0.191-0.299,0.355-0.572,0.532-0.791c0.088-0.111,0.181-0.201,0.272-0.288l0.109-0.102l0.22-0.128   c0.401-0.217,1.063-0.289,1.688-0.181c0.646,0.084,1.301,0.305,1.976,0.508c-0.518-0.479-1.101-0.886-1.778-1.188   c-0.685-0.276-1.475-0.463-2.367-0.158l-0.245,0.094c-0.107,0.056-0.224,0.117-0.322,0.18c-0.183,0.122-0.345,0.264-0.488,0.408   c-0.286,0.291-0.507,0.592-0.713,0.853c-0.408,0.542-0.749,0.866-1.158,0.94c-0.201,0.047-0.522,0.032-0.939,0.062   c-0.209,0.021-0.449,0.061-0.691,0.154c-0.178,0.076-0.157,0.066-0.318,0.156c-0.134,0.073-0.208,0.136-0.302,0.208   c-0.667,0.581-1.065,1.242-1.301,2.015c-0.105,0.392-0.171,0.778-0.144,1.193c0.028,0.41,0.153,0.821,0.357,1.161   c0.432,0.675,1.026,1.074,1.624,1.44c-0.378-0.591-0.82-1.153-0.978-1.736c-0.174-0.566-0.039-1.133,0.201-1.668   C67.965,29.136,68.35,28.599,68.769,28.33z"></path><path d="M86.339,38.875c-0.411,0.251-0.851,0.442-1.304,0.492c-0.452,0.068-0.929,0.041-1.427-0.001l-0.737-0.065   c-0.254-0.025-0.532-0.056-0.847-0.037c-0.313,0.018-0.675,0.103-0.989,0.3c-0.076,0.041-0.163,0.115-0.241,0.178   c-0.073,0.067-0.074,0.063-0.171,0.162c-0.112,0.12-0.214,0.25-0.301,0.381c-0.341,0.558-0.486,0.891-0.723,1.028   c-0.701,0.495-1.326,0.501-2.053,0.036c-0.363-0.215-0.72-0.517-1.083-0.849c-0.461-0.43-1.082-0.729-1.655-0.841   c-0.576-0.121-1.103-0.135-1.574-0.189c-0.466-0.051-0.901-0.141-1.248-0.302c-0.812-0.419-1.479-1.032-1.575-1.928   c-0.123-0.898,0.237-1.894,0.605-2.837c-0.634,0.794-1.228,1.702-1.312,2.86c-0.036,0.573,0.14,1.187,0.467,1.684   c0.323,0.501,0.773,0.881,1.235,1.189c1.082,0.686,2.266,0.601,3.077,0.854c0.414,0.118,0.737,0.275,1.015,0.547   c0.378,0.358,0.789,0.732,1.291,1.048c0.502,0.305,1.144,0.554,1.837,0.524c0.694-0.028,1.313-0.32,1.782-0.688   c0.303-0.238,0.509-0.521,0.657-0.798c0.146-0.273,0.233-0.494,0.33-0.661c0.218-0.35,0.365-0.493,0.75-0.573   c0.363-0.07,0.958-0.021,1.458-0.073c0.514-0.039,1.062-0.082,1.6-0.257c0.539-0.179,1.009-0.493,1.389-0.872   c0.188-0.193,0.367-0.41,0.467-0.678c0.11-0.272,0.019-0.602-0.189-0.753c0.153,0.217,0.133,0.479-0.008,0.658   C86.733,38.6,86.542,38.748,86.339,38.875z"></path><path d="M91.661,34.092c0.488-0.567,0.977-1.366,1.019-2.283c0.051-0.935-0.417-1.825-1.022-2.344   c-0.596-0.553-1.293-0.882-1.993-1.118c-0.708-0.214-1.438-0.345-2.16-0.286c1.316,0.511,2.553,1.238,3.334,2.178   c0.367,0.481,0.561,0.977,0.479,1.461c-0.038,0.243-0.119,0.493-0.254,0.74c-0.136,0.26-0.288,0.458-0.513,0.723   c-0.209,0.257-0.468,0.536-0.7,0.905c-0.231,0.366-0.415,0.853-0.42,1.332c-0.003,0.119,0.002,0.235,0.014,0.349l0.024,0.185   l0.028,0.134c0.052,0.248,0.115,0.419,0.181,0.598c0.126,0.348,0.233,0.601,0.263,0.841c0.058,0.496-0.158,1.042-0.632,1.477   c-0.458,0.453-1.08,0.791-1.714,1.127c0.72-0.03,1.443-0.181,2.132-0.552c0.338-0.193,0.664-0.457,0.918-0.812   c0.128-0.175,0.226-0.377,0.297-0.588c0.038-0.105,0.07-0.244,0.086-0.313c0.025-0.127,0.038-0.231,0.044-0.35   c0.029-0.469-0.097-0.893-0.184-1.212c-0.041-0.156-0.077-0.323-0.086-0.421l-0.014-0.126c0.003,0.001,0-0.054,0-0.078   c0-0.062,0.003-0.121,0.013-0.178C90.833,35.045,91.163,34.666,91.661,34.092z"></path><path d="M85.245,44.848c-0.382,0.164-0.777,0.302-1.169,0.38c-0.371,0.078-0.761,0.107-1.147,0.063   c-0.385-0.039-0.801-0.124-1.156-0.22c-0.233-0.067-0.354-0.109-0.523-0.192c-0.162-0.08-0.333-0.181-0.514-0.292   c-0.372-0.219-0.76-0.472-1.337-0.653c-0.53-0.172-1.194-0.132-1.687,0.023c-0.509,0.161-0.937,0.394-1.324,0.606   c-0.385,0.218-0.708,0.374-1.047,0.479c-0.63,0.21-1.429,0.093-2.142-0.187c-0.746-0.313-1.5-0.727-2.149-1.24   c-0.331-0.253-0.629-0.543-0.854-0.879c-0.219-0.331-0.348-0.753-0.176-1.178c-0.313,0.335-0.351,0.896-0.188,1.346   c0.152,0.459,0.428,0.853,0.721,1.215c0.613,0.707,1.331,1.289,2.157,1.751c0.209,0.116,0.423,0.225,0.675,0.318   c0.165,0.059,0.22,0.07,0.351,0.107c0.125,0.034,0.25,0.062,0.373,0.086c0.493,0.099,1.054,0.105,1.573-0.017   c0.518-0.111,0.984-0.354,1.37-0.554c0.385-0.2,0.741-0.374,1.075-0.468c0.667-0.234,1.104-0.02,1.938,0.439   c0.203,0.104,0.42,0.211,0.66,0.306c0.231,0.099,0.536,0.172,0.728,0.21c0.499,0.103,0.958,0.138,1.45,0.121   c0.491-0.017,0.985-0.095,1.451-0.286c0.445-0.179,0.856-0.406,1.24-0.669c0.377-0.271,0.733-0.579,1.024-0.944   c0.14-0.187,0.274-0.378,0.366-0.594c0.049-0.11,0.078-0.194,0.137-0.302c0.059-0.117,0.038-0.241,0.02-0.346   C86.781,44.072,85.995,44.517,85.245,44.848z"></path><path d="M44.566,42.952c-0.098-0.172-0.261-0.407-0.38-0.537l-0.095-0.111c-0.017-0.017-0.035-0.032-0.052-0.057   c-0.035-0.041-0.069-0.1-0.101-0.163c-0.133-0.258-0.219-0.616-0.287-0.975l-0.193-1.124c-0.078-0.374-0.138-0.793-0.445-1.119   c-0.362-0.292-0.815-0.179-1.144-0.018c-0.219,0.121-0.401,0.291-0.564,0.477c0.168-0.18,0.363-0.333,0.587-0.431   c0.324-0.141,0.778-0.144,0.977,0.105c0.183,0.267,0.164,0.658,0.157,1.017c-0.018,0.368-0.067,0.743-0.094,1.131   c-0.024,0.39-0.052,0.791,0.046,1.251c0.027,0.115,0.061,0.233,0.118,0.355c0.024,0.061,0.059,0.123,0.095,0.184l0.065,0.122   c0.101,0.176,0.118,0.272,0.188,0.437c0.11,0.298,0.184,0.613,0.215,0.908c0.035,0.293,0.009,0.576-0.06,0.717   c-0.024,0.049-0.042,0.07-0.063,0.094c-0.01-0.001-0.018,0.001-0.03-0.002c-0.23-0.027-0.546-0.144-0.834-0.283   c-0.588-0.287-1.155-0.703-1.591-1.24c-0.439-0.535-0.717-1.228-0.717-1.967c0.001-0.739,0.282-1.473,0.696-2.097   c-0.417,0.625-0.756,1.312-0.895,2.079c-0.146,0.762-0.047,1.601,0.288,2.357c0.333,0.758,0.872,1.425,1.559,1.936   c0.353,0.25,0.724,0.471,1.233,0.592c0.131,0.028,0.272,0.05,0.447,0.046c0.088-0.003,0.185-0.013,0.298-0.043   c0.046-0.008,0.173-0.062,0.214-0.084l0.031-0.016l0.053-0.032l0.013-0.009l0.025-0.019c0.285-0.187,0.485-0.47,0.606-0.743   c0.222-0.561,0.189-1.061,0.104-1.505C44.947,43.737,44.788,43.329,44.566,42.952z M43.599,45.218   C43.625,45.21,43.619,45.214,43.599,45.218L43.599,45.218z"></path><path d="M41.061,39.627c0.071-0.108,0.16-0.204,0.246-0.302C41.218,39.42,41.133,39.52,41.061,39.627z"></path><path d="M45.873,40.732c0.088,0.354,0.159,0.716,0.145,1.006c-0.003,0.07-0.009,0.137-0.024,0.19   c-0.005,0.029-0.016,0.051-0.024,0.073l-0.04,0.131c-0.061,0.233-0.103,0.435-0.123,0.656c-0.042,0.434-0.019,0.873,0.083,1.317   c0.111,0.44,0.284,0.908,0.721,1.325c0.216,0.203,0.527,0.373,0.86,0.426l0.031,0.006l0.076,0.009l0.036,0.002   c0.043,0.004,0.184-0.002,0.228-0.013c0.116-0.02,0.209-0.051,0.29-0.085c0.162-0.069,0.281-0.147,0.388-0.228   c0.413-0.322,0.659-0.678,0.876-1.052c0.412-0.75,0.626-1.58,0.613-2.409c-0.011-0.826-0.27-1.63-0.719-2.263   c-0.445-0.64-1.041-1.123-1.679-1.518c0.637,0.394,1.197,0.946,1.506,1.617c0.309,0.672,0.344,1.418,0.167,2.087   c-0.174,0.67-0.516,1.285-0.932,1.789c-0.204,0.247-0.443,0.484-0.641,0.604c-0.013,0.01-0.022,0.014-0.035,0.02   c-0.024-0.012-0.051-0.028-0.088-0.062c-0.264-0.224-0.496-0.929-0.535-1.545c-0.01-0.154-0.018-0.329-0.013-0.466l0.012-0.146   c0.007-0.071,0.013-0.142,0.01-0.207c0-0.135-0.019-0.257-0.042-0.373c-0.102-0.459-0.294-0.812-0.479-1.157   c-0.185-0.342-0.386-0.663-0.556-0.989c-0.156-0.324-0.335-0.672-0.281-0.991c0.076-0.309,0.491-0.495,0.845-0.501   c0.372-0.008,0.742,0.125,1.061,0.32c-0.317-0.201-0.678-0.343-1.061-0.372c-0.365-0.01-0.824,0.075-1.032,0.492   c-0.144,0.424-0.024,0.83,0.061,1.203L45.873,40.732z M47.629,44.447C47.611,44.451,47.604,44.45,47.629,44.447L47.629,44.447z"></path><path d="M55.566,57.6c0.609,0.085,1.252,0.056,1.879-0.11c0.631-0.155,1.21-0.57,1.653-0.836c0.97-0.569,1.95-1.127,2.969-1.576   c0.505-0.229,1.013-0.453,1.52-0.62c0.251-0.084,0.505-0.156,0.737-0.196c0.212-0.055,0.493-0.027,0.431-0.038l2.628,0.454   l-1.875-1.666c-0.314-0.28-0.659-0.701-0.903-1.106c-0.255-0.417-0.434-0.865-0.55-1.323c-0.11-0.457-0.133-0.934-0.058-1.404   c0.095-0.51,0.185-1.121,0.238-1.676c0.116-1.138,0.121-2.3-0.085-3.445c-0.016-0.079-0.035-0.158-0.053-0.237   c0.616-0.403,1.12-0.96,1.592-1.526c0.526-0.681,1.013-1.42,1.281-2.321c0.068-0.232,0.122-0.445,0.147-0.728l0.046-0.601   c0.038-0.355,0.132-0.716,0.256-1.071c0.245-0.7,0.6-1.438,1.01-2.036l0.802-1.167L67.866,34.4h-0.003l-0.088-0.024   c-0.066-0.021-0.144-0.049-0.22-0.081c-0.155-0.065-0.318-0.144-0.481-0.23c-0.323-0.173-0.651-0.37-0.985-0.562l-1.029-0.636   c-0.386-0.21-0.783-0.378-1.186-0.515c-0.803-0.279-1.634-0.396-2.448-0.445c-0.717-0.031-1.432,0-2.129,0.117   c0.011-0.804-0.184-1.628-0.592-2.374c-0.217-0.378-0.495-0.733-0.844-1.037c-0.161-0.146-0.406-0.305-0.557-0.394   c-0.121-0.079-0.235-0.163-0.334-0.265c-0.401-0.381-0.605-1.072-0.64-1.632l-0.122-1.981l-1.145,1.589   c-0.151,0.21-0.617,0.446-1.089,0.585c-0.482,0.142-1.002,0.265-1.535,0.344c-1.067,0.152-2.171,0.241-3.278,0.27l-0.852,0.024   c-0.325,0.011-0.648,0.062-0.958,0.147c-0.627,0.16-1.185,0.492-1.656,0.878c-0.838,0.706-1.414,1.613-1.77,2.579   c-0.021-0.016-0.041-0.034-0.061-0.049c-0.75-0.558-1.629-0.916-2.564-1.072c-0.235-0.04-0.474-0.07-0.719-0.072   c-0.287-0.004-0.468,0.02-0.629,0.007c-0.341-0.018-0.697-0.118-1.053-0.241c-0.711-0.241-1.431-0.685-2.046-1.117l-0.925-0.65   l-0.218,1.071c-0.137,0.668-0.4,1.386-0.667,2.049c-0.28,0.664-0.644,1.3-1.063,1.843c-0.114,0.14-0.266,0.308-0.397,0.503   c-0.128,0.19-0.231,0.396-0.311,0.607c-0.057,0.154-0.091,0.312-0.125,0.469c-0.791-0.235-1.656-0.254-2.497-0.084   c-0.978,0.213-1.914,0.703-2.671,1.382c-0.395,0.341-0.704,0.706-1.015,1.002c-0.321,0.311-0.653,0.606-1,0.867   c-0.34,0.268-0.693,0.511-1.055,0.696c-0.18,0.091-0.362,0.171-0.538,0.227c-0.088,0.027-0.174,0.05-0.254,0.065   c-0.06,0.014-0.197,0.02-0.142,0.024l-2.861-0.216l2.42,1.552c0.227,0.146,0.541,0.447,0.74,0.738   c0.218,0.3,0.365,0.64,0.481,0.994c0.055,0.178,0.096,0.363,0.121,0.552c0.012,0.095,0.023,0.191,0.027,0.288   c0.009,0.146,0.013,0.219,0.029,0.364c0.066,0.587,0.262,1.042,0.494,1.489c0.467,0.878,1.12,1.587,1.846,2.186   c0.372,0.29,0.759,0.56,1.185,0.765c0.27,0.128,0.562,0.24,0.861,0.289c-0.15,0.659-0.204,1.349-0.118,2.035   c0.064,0.511,0.129,0.913,0.17,1.368c0.038,0.444,0.058,0.89,0.049,1.332c0.009,0.866-0.092,1.805-0.295,2.545l-0.232,0.843   l0.824,0.094c0.885,0.103,1.765,0.22,2.653,0.296c0.806,0.062,1.569,0.143,2.409,0.16c0.024,1.159,0.416,2.343,1.182,3.309   c0.451,0.553,1.021,1.025,1.663,1.359c0.643,0.336,1.337,0.551,2.037,0.678c0.744,0.116,1.305,0.151,1.928,0.304   c0.609,0.139,1.198,0.322,1.748,0.562s1.053,0.556,1.467,0.939c0.206,0.192,0.39,0.4,0.547,0.62c0.15,0.2,0.295,0.501,0.334,0.632   l0.679,2.294l0.702-2.26c0.262-0.844,0.795-1.758,1.439-2.456c0.329-0.354,0.701-0.666,1.108-0.93   c0.101-0.069,0.205-0.132,0.309-0.193c0.153-0.093,0.233-0.14,0.395-0.26c0.267-0.2,0.479-0.411,0.677-0.641   c0.77-0.927,1.172-1.993,1.47-3.052c0.045-0.175,0.081-0.35,0.121-0.525C53.443,56.967,54.453,57.426,55.566,57.6z M63.125,53.116   c-0.581,0.209-1.128,0.453-1.658,0.722c-1.05,0.559-2.061,1.163-3,1.878c-0.5,0.384-0.851,0.681-1.326,0.877   c-0.467,0.195-0.988,0.296-1.527,0.299c-0.998,0.02-2.028-0.237-3.018-0.626c0.161-0.742,0.256-1.498,0.235-2.25   c0.29-0.001,0.581-0.021,0.868-0.084c0.227-0.05,0.453-0.111,0.674-0.193c0.108-0.037,0.217-0.084,0.325-0.13l0.282-0.119   c0.691-0.299,1.463-0.492,2.229-0.64c0.76-0.145,1.578-0.234,2.316-0.254l1.195-0.031l-0.56-1.024   c-0.238-0.438-0.479-0.984-0.62-1.501c-0.137-0.528-0.231-1.062-0.183-1.583c0.062-0.504,0.229-1.213,0.2-1.845   c0-0.389-0.081-0.824-0.265-1.188c0.336-0.291,0.681-0.571,1.023-0.831l1.821-1.38l-1.682,0.078   c0.582-0.18,1.134-0.524,1.547-1.028c0.222-0.272,0.385-0.587,0.52-0.917c0.726,0.756,0.911,1.8,0.94,2.788   c0.032,1.069-0.125,2.145-0.326,3.206c-0.104,0.546-0.239,1.025-0.372,1.604c-0.14,0.62-0.151,1.278-0.039,1.91   c0.105,0.633,0.354,1.228,0.663,1.769c0.07,0.118,0.142,0.229,0.214,0.34C63.439,53.01,63.28,53.062,63.125,53.116z M44.519,55.66   c-0.15,0.098-0.289,0.199-0.425,0.306c-0.408-0.613-0.95-1.104-1.496-1.482c-0.843-0.585-1.74-0.994-2.627-1.377L38.66,52.55   c-0.386-0.181-0.708-0.485-0.913-0.883c-0.305-0.597-0.373-1.313-0.303-2.021c0.393-0.046,0.788-0.07,1.18-0.091   c0.411-0.02,0.789,0.004,1.259,0.022c0.902,0,1.821-0.056,2.717-0.347c0.444-0.138,0.883-0.358,1.245-0.681   c0.364-0.325,0.575-0.811,0.544-1.253c-0.322,0.868-1.172,1.096-1.955,1.17c-0.805,0.067-1.638,0.004-2.462-0.114   c-0.393-0.052-0.878-0.124-1.336-0.144c-0.461-0.029-0.921-0.005-1.377,0.035c-0.549,0.048-1.079,0.134-1.611,0.255   c0.007-0.329-0.002-0.65-0.027-0.966c-0.037-0.663-0.189-1.367-0.3-1.949c-0.103-0.583-0.12-1.171,0.023-1.741   c0.071-0.286,0.194-0.558,0.354-0.822c0.157-0.266,0.388-0.493,0.59-0.759c-0.577,0.273-1.182,0.697-1.518,1.342   c-0.209,0.369-0.329,0.777-0.399,1.192c-0.632-0.064-1.245-0.188-1.779-0.42c-0.604-0.245-1.049-0.688-1.209-1.162   c-0.017-0.036-0.059-0.181-0.067-0.212l-0.077-0.27c-0.053-0.18-0.113-0.358-0.177-0.535c-0.139-0.35-0.294-0.691-0.47-1.024   c-0.135-0.258-0.282-0.502-0.438-0.742c0.036-0.013,0.072-0.019,0.106-0.033c0.515-0.2,0.904-0.492,1.254-0.761   c0.689-0.553,1.267-1.093,1.925-1.543c0.635-0.478,1.294-0.768,2.082-0.878c0.641-0.093,1.32-0.052,2.002,0.087   c-0.027,0.366-0.017,0.734,0.061,1.088c0.094,0.524,0.324,1.012,0.624,1.417c-0.153-1.006-0.023-1.929,0.342-2.746   c0.163-0.415,0.406-0.794,0.653-1.164c0.19-0.285,0.427-0.557,0.655-0.796c0.599-0.009,1.195-0.009,1.788,0.025   c0.68,0.039,1.36,0.085,2.03,0.203c0.674,0.097,1.338,0.254,2,0.452c0.659,0.208,1.313,0.456,1.947,0.825   c-0.382-0.643-0.979-1.139-1.607-1.547c-0.558-0.359-1.17-0.625-1.799-0.84c0.338-0.355,0.716-0.646,1.125-0.838   c0.29-0.145,0.594-0.237,0.901-0.282c0.154-0.02,0.306-0.042,0.462-0.043l0.516,0.001c0.807-0.016,1.567-0.207,2.299-0.473   c0.403-0.161,0.782-0.342,1.151-0.555c0.123,0.35,0.279,0.689,0.485,1.029c0.205,0.326,0.456,0.649,0.805,0.917   c0.165,0.136,0.401,0.249,0.525,0.299c0.09,0.036,0.224,0.114,0.33,0.188c0.443,0.319,0.856,0.774,1.134,1.306   c0.188,0.35,0.316,0.739,0.354,1.154c-0.01,0-0.021,0-0.031-0.001c-0.653-0.038-1.273-0.16-1.902-0.415   c-0.664-0.249-1.398-0.437-2.126-0.442c-0.731-0.013-1.458,0.189-2.045,0.569c0.663-0.229,1.356-0.27,2.007-0.144   c0.659,0.118,1.263,0.376,1.861,0.7c0.626,0.346,1.361,0.598,2.088,0.721c0.272,0.042,0.541,0.067,0.812,0.083   c-0.132,0.193-0.259,0.388-0.381,0.592c-0.343,0.593-0.622,1.221-0.834,1.861c-0.172,0.522-0.436,0.988-0.797,1.342   c-0.18,0.178-0.382,0.326-0.602,0.444c-0.2,0.113-0.488,0.22-0.631,0.245l-0.502,0.086l-0.106,0.445   c-0.14,0.587-0.253,1.137-0.368,1.704c-0.118,0.564-0.218,1.123-0.313,1.697c-0.102,0.62-0.133,1.278,0.009,1.944   c0.019,0.089,0.051,0.175,0.076,0.263c-0.122-0.004-0.246-0.011-0.365-0.003c-0.351,0.021-0.688,0.079-1.014,0.161   c-0.353,0.087-0.607,0.188-0.879,0.233c-0.55,0.104-1.13-0.005-1.658-0.281c-0.523-0.281-1.001-0.704-1.375-1.213   c0.249,0.584,0.635,1.126,1.163,1.539c0.521,0.419,1.223,0.662,1.93,0.644c0.359,0,0.707-0.099,0.973-0.125   c0.147-0.019,0.295-0.031,0.44-0.036c0.332,0.821,0.492,1.717,0.298,2.545c-0.198,0.887-0.779,1.623-1.5,2.129   c-0.361,0.256-0.757,0.462-1.167,0.611c-0.205,0.073-0.413,0.134-0.618,0.175c-0.1,0.021-0.211,0.036-0.297,0.044   c-0.104,0.011-0.246,0.02-0.382,0.044C45.527,55.166,44.993,55.365,44.519,55.66z M61.278,38.759l0.249,0.541   c0.065,0.155,0.117,0.318,0.154,0.487c0.141,0.674,0.073,1.428-0.267,2.083c-0.288,0.604-0.823,1.093-1.479,1.445l-0.165,0.008   c0.047-0.002-0.076,0.006-0.114-0.006c-0.06-0.008-0.116-0.029-0.179-0.065c-0.12-0.075-0.249-0.234-0.347-0.445   c-0.102-0.211-0.19-0.464-0.246-0.727c-0.057-0.278-0.114-0.659-0.245-0.969c-0.239-0.649-0.683-1.234-1.248-1.592   c-0.48-0.313-1.023-0.472-1.559-0.503c0.245-0.447,0.556-0.889,0.84-1.193l1.347-1.446l-1.846,0.418   c-0.483,0.11-1.049,0.154-1.596,0.139c0.12-0.444,0.122-0.936,0.019-1.394c-0.166-0.688-0.502-1.345-1.033-1.877   c0.576-0.078,1.146-0.106,1.696-0.051c0.391,0.033,0.77,0.108,1.118,0.236c0.36,0.129,0.624,0.285,1.006,0.524   c0.718,0.445,1.473,0.851,2.328,1.179c0.46,0.168,0.989,0.289,1.538,0.308c-0.138,0.458-0.223,0.931-0.237,1.441   C61.009,37.78,61.083,38.285,61.278,38.759z M58.943,46.545c-0.076,0.278-0.166,0.558-0.266,0.829   c-0.089,0.269-0.238,0.536-0.327,0.892c-0.171,0.68-0.181,1.386-0.057,2.045c0.057,0.312,0.129,0.61,0.219,0.903   c-0.538,0.044-1.063,0.122-1.596,0.239c-0.752,0.169-1.477,0.434-2.182,0.785l-2.398-2.868c-0.09-0.106-0.168-0.178-0.24-0.237   c-0.081-0.096-0.186-0.24-0.241-0.372c-0.091-0.196-0.153-0.412-0.19-0.641c-0.017-0.103-0.024-0.207-0.03-0.313   c0.577,0.511,1.331,0.845,2.13,0.966c0.936,0.133,1.956,0.009,2.855-0.562c0.224-0.142,0.431-0.32,0.614-0.531l0.145-0.183   l0.098-0.141c0.082-0.126,0.114-0.169,0.179-0.257c0.234-0.307,0.506-0.604,0.791-0.894c0.191-0.193,0.404-0.38,0.613-0.567   C59.071,45.941,59.014,46.249,58.943,46.545z M52.12,45.005c0.091-0.409,0.188-0.822,0.284-1.225   c0.23-0.074,0.435-0.165,0.65-0.279c0.339-0.19,0.649-0.429,0.918-0.706c0.54-0.553,0.897-1.239,1.108-1.929   c0.172-0.574,0.375-1.133,0.646-1.656c0.019-0.039,0.043-0.077,0.062-0.116c0.49,0.202,0.923,0.494,1.255,0.844   c0.381,0.414,0.616,0.906,0.708,1.429c0.046,0.275,0.059,0.502,0.066,0.828c0.013,0.342,0.051,0.69,0.162,1.05   c0.105,0.311,0.274,0.641,0.553,0.927c-0.392,0.325-0.764,0.673-1.117,1.057c-0.314,0.346-0.607,0.722-0.857,1.144   c-0.057,0.094-0.136,0.238-0.167,0.3l-0.08,0.136l-0.052,0.08c-0.094,0.129-0.209,0.249-0.338,0.365   c-0.533,0.454-1.319,0.716-2.12,0.768c-0.715,0.055-1.454-0.069-2.167-0.363c-0.004-0.323,0.036-0.659,0.111-0.995L52.12,45.005z    M49.762,49.537c0.134-0.004,0.267-0.004,0.396,0.003c0.279,0.02,0.546,0.071,0.779,0.155c0.094,0.034,0.176,0.08,0.255,0.127   c0.107,0.114,0.232,0.226,0.4,0.339l3.113,2.092c-0.096,0.049-0.19,0.092-0.283,0.144l-0.272,0.165   c-0.079,0.049-0.155,0.098-0.236,0.141c-0.159,0.09-0.328,0.165-0.499,0.233c-0.347,0.128-0.711,0.239-1.094,0.284   c-0.691,0.096-1.428,0.05-2.168-0.107c0.124-0.313,0.208-0.639,0.238-0.974C50.485,51.201,50.193,50.31,49.762,49.537z    M67.882,34.402c0.005,0.001,0.003,0.001,0.003,0.001l-0.008-0.002C67.877,34.402,67.879,34.402,67.882,34.402z M65.349,34.615   c0.327,0.249,0.676,0.475,1.046,0.686c0.125,0.071,0.261,0.138,0.395,0.205c-0.279,0.535-0.506,1.081-0.667,1.679   c-0.112,0.444-0.191,0.904-0.201,1.382c-0.002,0.12-0.005,0.239,0.007,0.36l0.012,0.148c0.002,0.049,0.009,0.113,0.007,0.141   c0.008,0.134-0.01,0.334-0.038,0.506c-0.128,0.723-0.425,1.484-0.789,2.207c-0.309,0.598-0.635,1.204-1.055,1.75   c-0.107-0.441-0.255-0.875-0.479-1.273c-0.246-0.456-0.606-0.854-1.041-1.108c0.202-0.522,0.303-1.089,0.253-1.66   c-0.017-0.239-0.058-0.478-0.12-0.714c-0.068-0.255-0.176-0.475-0.211-0.602c-0.095-0.298-0.118-0.627-0.087-0.966   c0.048-0.667,0.3-1.426,0.629-2.016l0.964-1.722C64.429,33.895,64.833,34.227,65.349,34.615z M63.471,33.344   c0.164,0.078,0.315,0.161,0.463,0.25l-1.8,0.702c-0.588,0.23-1.267,0.17-1.995-0.051c-0.387-0.106-0.776-0.257-1.172-0.423   c0.198-0.533,0.317-1.105,0.33-1.693C60.774,32.375,62.213,32.729,63.471,33.344z M46.154,28.832   c0.452-0.264,0.938-0.43,1.419-0.502c0.242-0.037,0.485-0.045,0.728-0.024c0.248,0.017,0.559,0.055,0.844,0.063   c1.156,0.056,2.321,0.056,3.495-0.105c0.586-0.083,1.183-0.174,1.777-0.378c0.257-0.096,0.524-0.193,0.789-0.328   c0.022,0.057,0.043,0.112,0.068,0.169c0.192,0.425,0.471,0.834,0.846,1.156c0.188,0.16,0.393,0.301,0.613,0.405   c0.193,0.089,0.282,0.132,0.423,0.226c0.263,0.175,0.504,0.411,0.705,0.684c0.425,0.538,0.691,1.218,0.838,1.938   c0.098,0.517,0.12,1.059,0.083,1.609c-0.289-0.125-0.58-0.253-0.879-0.377c-0.351-0.157-0.841-0.38-1.294-0.441   c-0.464-0.075-0.924-0.079-1.366-0.026c-0.667,0.093-1.303,0.285-1.881,0.575c-0.09-0.078-0.185-0.155-0.305-0.234   c-0.163-0.107-0.221-0.148-0.306-0.228c-0.16-0.153-0.305-0.369-0.424-0.613c-0.232-0.484-0.413-1.096-0.506-1.637l-0.201-1.184   l-0.971,0.735c-0.475,0.361-1.081,0.723-1.669,0.99c-0.589,0.29-1.23,0.482-1.852,0.603l-0.557,0.091   c-0.201,0.038-0.4,0.094-0.593,0.164c-0.287,0.113-0.552,0.268-0.799,0.441c-0.142-0.688-0.61-1.314-1.172-1.775   C44.626,30.017,45.338,29.303,46.154,28.832z M33.733,34.975c0.072-0.347,0.183-0.673,0.358-0.95   c0.083-0.141,0.191-0.263,0.293-0.383c0.103-0.115,0.228-0.219,0.38-0.36c0.636-0.596,1.1-1.292,1.483-2.026   c0.233-0.438,0.417-0.884,0.573-1.347c0.514,0.301,1.052,0.547,1.642,0.745c0.462,0.144,0.958,0.226,1.482,0.214   c0.269-0.006,0.516-0.055,0.66-0.061c0.186-0.01,0.378-0.017,0.571-0.011c0.774,0.033,1.578,0.209,2.304,0.543   c0.628,0.282,1.197,0.72,1.573,1.352c-0.038,0.029-0.082,0.052-0.118,0.083c-0.433,0.382-0.765,0.848-0.966,1.352   c-0.003-0.001-0.005-0.002-0.008-0.003c-1.447-0.44-2.971-0.55-4.449-0.421l-0.289,0.025L39.06,33.9   c-0.412,0.438-0.673,0.874-0.937,1.354c-0.255,0.475-0.425,0.997-0.536,1.526c-0.019,0.113-0.033,0.227-0.046,0.341   c-0.602-0.364-1.298-0.589-2.034-0.659c-0.455-0.032-0.926-0.005-1.388,0.101c-0.13,0.03-0.263,0.084-0.395,0.13   C33.637,36.102,33.626,35.516,33.733,34.975z M28.668,46.663c-0.33-0.287-0.636-0.598-0.91-0.935   c-0.556-0.661-1.019-1.402-1.321-2.155c-0.143-0.369-0.233-0.782-0.25-1.093c-0.004-0.079-0.003-0.231,0-0.31   c0.003-0.128-0.002-0.257-0.007-0.387c-0.016-0.259-0.052-0.519-0.11-0.776c-0.112-0.517-0.339-1.009-0.634-1.45   c-0.05-0.072-0.102-0.138-0.153-0.206c0.095-0.045,0.2-0.081,0.29-0.13c0.466-0.256,0.884-0.556,1.266-0.883   c0.379-0.332,0.724-0.688,1.05-1.054c0.343-0.375,0.61-0.754,0.888-1.067c0.575-0.637,1.273-1.169,2.087-1.51   c0.688-0.301,1.455-0.459,2.249-0.478c-0.042,0.233-0.062,0.467-0.054,0.697c0.029,0.659,0.207,1.276,0.491,1.825   c-0.259,0.101-0.51,0.213-0.724,0.327c-0.788,0.421-1.51,0.966-2.154,1.443c-0.321,0.235-0.63,0.436-0.91,0.531   c-0.279,0.09-0.532,0.118-0.847,0.058l-2.284-0.432l1.639,1.64c0.412,0.412,0.827,0.977,1.183,1.515   c0.179,0.276,0.341,0.563,0.49,0.859c0.076,0.146,0.153,0.293,0.222,0.444l0.103,0.227c0.059,0.131,0.069,0.156,0.134,0.276   c0.143,0.281,0.342,0.498,0.559,0.688c-0.577,0.558-1.032,1.249-1.359,2.011c-0.103,0.255-0.186,0.521-0.255,0.791   C29.102,47.004,28.879,46.834,28.668,46.663z M30.676,54.182c0.126-0.747,0.142-1.456,0.126-2.193   c-0.027-0.494-0.085-0.983-0.165-1.467c-0.072-0.475-0.2-0.99-0.311-1.396c-0.193-0.826-0.213-1.704-0.033-2.573   c0.139-0.729,0.411-1.445,0.782-2.13c0.407,0.318,0.885,0.515,1.336,0.588c0.674,0.104,1.331,0.048,1.948-0.124   c-0.038,0.261-0.062,0.523-0.062,0.782c0.032,0.701,0.05,1.279,0.047,1.908c-0.004,0.307-0.02,0.609-0.055,0.897l-0.062,0.415   l-0.041,0.183c-0.007,0.037-0.051,0.143-0.02,0.072l-0.636,1.425l1.488-0.432c0.727-0.211,1.544-0.371,2.328-0.479   c-0.157,0.696-0.184,1.435,0.068,2.155c0.174,0.483,0.526,0.924,0.975,1.21l1.083,0.629c-0.154,0.262-0.428,0.436-0.687,0.577   c-0.377,0.188-0.782,0.324-1.195,0.418c-0.82,0.197-1.69,0.272-2.475,0.204l-2.585-0.402L30.676,54.182z M50.211,59.193   c-0.168,0.163-0.357,0.312-0.532,0.418c-0.057,0.039-0.213,0.119-0.295,0.157c-0.133,0.063-0.266,0.126-0.395,0.198   c-0.519,0.282-0.992,0.645-1.42,1.053c-0.498,0.482-0.91,1.019-1.251,1.612c-0.169-0.213-0.35-0.412-0.548-0.589   c-0.567-0.506-1.215-0.885-1.884-1.163c-0.667-0.287-1.361-0.456-2.052-0.571c-0.677-0.121-1.442-0.152-2.015-0.192   c-1.219-0.105-2.404-0.522-3.303-1.367c-0.768-0.711-1.293-1.705-1.582-2.787c0.046,0,0.091,0.003,0.139,0.003   c0.991-0.025,1.894-0.282,2.749-0.662c0.42-0.204,0.834-0.433,1.189-0.752c0.243-0.214,0.487-0.513,0.567-0.835l0.065,0.038   c0.818,0.479,1.618,0.983,2.28,1.582c0.665,0.594,1.157,1.303,1.273,2.041l0.344,2.19l0.989-2.009v0.001   c0.131-0.269,0.421-0.624,0.716-0.859c0.304-0.251,0.659-0.44,1.047-0.553c0.096-0.029,0.192-0.049,0.321-0.077   c0.147-0.034,0.269-0.069,0.397-0.112c0.252-0.086,0.492-0.19,0.722-0.308c0.459-0.238,0.881-0.532,1.257-0.877   c0.479-0.435,0.876-0.976,1.126-1.57c0.636,0.443,1.4,0.719,2.211,0.801c0.132,0.011,0.268,0.007,0.404,0.009   c-0.2,0.915-0.521,1.793-0.887,2.633C51.421,57.6,50.889,58.519,50.211,59.193z"></path><path d="M66.324,19.188c0.438-1.333,1.025-2.604,1.721-3.801c1.116-1.896,2.533-3.589,4.162-5.056   c-0.104,0.803-0.249,1.612-0.431,2.398c-0.296,1.359-0.742,2.68-1.281,3.959c-0.558,1.271-1.236,2.496-2.081,3.613   c-0.833,1.128-1.839,2.133-2.965,3.031c0.385-0.185,0.752-0.398,1.114-0.626c1.018,0.704,2.304,0.963,3.531,1.039   c1.258,0.079,2.512-0.039,3.75-0.279c1.245-0.257,2.479-0.699,3.587-1.391c1.115-0.672,2.107-1.622,2.786-2.791l0.362-0.628   l-0.627-0.342c-0.807-0.437-1.674-0.738-2.557-0.954c-0.277-0.066-0.556-0.114-0.836-0.154c0.008-0.01,0.018-0.02,0.026-0.03   c0.219-0.27,0.379-0.566,0.539-0.865c0.147-0.304,0.275-0.617,0.366-0.955c0.05-0.168,0.087-0.344,0.112-0.538   c0.016-0.204,0.063-0.379-0.061-0.776l-0.09-0.289l-0.362-0.124c-0.492-0.17-0.995-0.242-1.495-0.254   c-0.25,0.003-0.5,0.009-0.75,0.045c-0.268,0.035-0.529,0.094-0.728,0.159c-0.568,0.162-0.985,0.483-1.325,0.808   c-0.053,0.051-0.099,0.104-0.149,0.156c0.168-0.49,0.326-0.985,0.466-1.484c0.369-1.437,0.615-2.862,0.689-4.395l0.076-1.564   l-1.247,0.983c-2.306,1.82-4.292,4.113-5.575,6.771c-0.653,1.319-1.123,2.723-1.413,4.152c-0.27,1.43-0.397,2.897-0.191,4.326   C65.562,21.905,65.878,20.518,66.324,19.188z M78.58,19.183c-0.524,0.655-1.184,1.216-1.906,1.691   c-0.951,0.602-2.008,1.064-3.123,1.378c-1.126,0.324-2.294,0.548-3.467,0.665c-1.14,0.093-2.305,0.095-3.429-0.272   c0.829-0.534,1.603-1.167,2.301-1.88c0.568-0.595,1.083-1.243,1.552-1.924c0.176-0.045,0.349-0.097,0.52-0.149l0.615-0.193   c0.099-0.032,0.202-0.062,0.288-0.081l0.316-0.069c0.811-0.146,1.655-0.255,2.447-0.207c0.81,0.027,1.602,0.204,2.373,0.436   C77.59,18.733,78.092,18.944,78.58,19.183z M76.235,14.572L76.235,14.572C76.225,14.524,76.228,14.536,76.235,14.572z    M73.212,15.063c0.418-0.148,0.808-0.256,1.124-0.264c0.241-0.022,0.425-0.02,0.604-0.02c0.197,0.007,0.396,0.01,0.593,0.028   c0.242,0.017,0.479,0.05,0.712,0.09c-0.002,0.078-0.002,0.152-0.005,0.235c-0.022,0.284-0.051,0.583-0.086,0.883   c-0.026,0.304-0.079,0.604-0.12,0.909c-0.013,0.074-0.029,0.147-0.044,0.22c-0.438-0.033-0.876-0.036-1.311-0.009   c-0.926,0.086-1.781,0.303-2.617,0.641l-0.297,0.127c-0.116,0.051-0.212,0.102-0.311,0.155l-0.563,0.327l-0.134,0.078   c0.27-0.418,0.528-0.844,0.758-1.284c0.321-0.602,0.6-1.225,0.847-1.86C72.661,15.256,72.949,15.153,73.212,15.063z"></path><path d="M14.188,31.845c-1.305-0.694-2.703-1.19-4.123-1.58C8.627,29.9,7.2,29.658,5.667,29.59l-1.565-0.07l0.987,1.242   c0.91,1.145,1.938,2.21,3.068,3.148c-0.168,0.013-0.339,0.036-0.516,0.085c-0.203,0.048-0.458,0.135-0.704,0.245   c-0.231,0.099-0.448,0.225-0.663,0.354c-0.421,0.271-0.812,0.595-1.143,0.998l-0.244,0.294l0.074,0.293   c0.102,0.404,0.235,0.528,0.355,0.694c0.122,0.152,0.246,0.282,0.375,0.4c0.255,0.24,0.528,0.44,0.812,0.623   c0.292,0.172,0.583,0.341,0.912,0.456c0.013,0.004,0.025,0.008,0.037,0.013c-0.218,0.18-0.432,0.367-0.632,0.567   c-0.641,0.645-1.225,1.355-1.682,2.148l-0.357,0.621l0.638,0.345c1.188,0.644,2.53,0.934,3.833,0.924   c1.307,0.012,2.588-0.256,3.785-0.687c1.181-0.442,2.312-0.997,3.344-1.721c0.961-0.674,1.875-1.519,2.394-2.578   c0.532,0.003,1.062-0.017,1.587-0.095c-1.43-0.107-2.817-0.419-4.149-0.86c-1.334-0.432-2.607-1.017-3.807-1.708   c-1.899-1.108-3.598-2.519-5.071-4.143c0.804,0.1,1.613,0.242,2.4,0.421c1.36,0.291,2.682,0.733,3.963,1.268   c1.274,0.553,2.501,1.229,3.621,2.068c1.131,0.829,2.14,1.831,3.042,2.954c-0.63-1.297-1.527-2.474-2.581-3.497   C16.719,33.38,15.499,32.523,14.188,31.845z M6.355,35.944L6.355,35.944C6.341,35.912,6.339,35.899,6.355,35.944z M18.591,37.982   c-0.745,0.811-1.673,1.383-2.632,1.867c-1.061,0.514-2.174,0.931-3.302,1.244c-1.115,0.315-2.259,0.472-3.384,0.457   c-0.862-0.028-1.714-0.161-2.501-0.444c0.292-0.458,0.602-0.904,0.965-1.31c0.537-0.601,1.121-1.166,1.796-1.611   c0.651-0.455,1.428-0.804,2.197-1.102l0.305-0.106c0.081-0.029,0.188-0.056,0.289-0.082l0.546-0.137   c1.025,0.421,2.089,0.74,3.168,0.955C16.882,37.869,17.738,37.964,18.591,37.982z M12.142,36.432   c-0.075,0.005-0.147,0.008-0.235,0.021l-0.32,0.047C10.7,36.648,9.855,36.91,9.021,37.32c-0.386,0.204-0.758,0.436-1.113,0.692   c-0.051-0.055-0.104-0.107-0.152-0.164c-0.195-0.239-0.396-0.467-0.578-0.712c-0.187-0.238-0.368-0.478-0.534-0.709   c-0.047-0.068-0.086-0.132-0.129-0.197c0.179-0.156,0.364-0.309,0.561-0.449c0.158-0.118,0.326-0.223,0.491-0.333   c0.153-0.093,0.308-0.191,0.526-0.298c0.274-0.159,0.663-0.271,1.097-0.362c0.028-0.006,0.059-0.013,0.089-0.02   c0.823,0.587,1.69,1.112,2.603,1.549C11.966,36.357,12.055,36.391,12.142,36.432z"></path><path d="M50.486,21.113c-0.302,0.415-0.435,0.845-0.521,1.276c-0.077,0.431-0.083,0.865-0.021,1.295   c0.062,0.43,0.195,0.858,0.419,1.261c0.231,0.39,0.548,0.799,1.043,0.972c0.019-0.505,0.055-0.885,0.054-1.283   c0.001-0.392-0.023-0.774-0.081-1.16c-0.058-0.385-0.146-0.772-0.281-1.164C50.956,21.918,50.788,21.524,50.486,21.113z"></path><path d="M23.185,27.729c-0.699-0.272-0.916-0.695-1.445-1.193c-0.519-0.502-1.317-0.844-2.051-0.905   c-0.329-0.024-0.442-0.055-0.585-0.12c-0.126-0.055-0.246-0.172-0.355-0.389c-0.221-0.44-0.296-1.095-0.396-1.789   c-0.469,0.54-0.768,1.215-0.709,2.051c0.036,0.41,0.236,0.907,0.647,1.231c0.197,0.163,0.425,0.27,0.646,0.345   c0.108,0.03,0.224,0.062,0.329,0.074l0.271,0.037c0.559,0.062,1.025,0.165,1.57,0.411c0.275,0.12,0.599,0.277,0.978,0.373   C22.468,27.94,22.871,27.907,23.185,27.729z"></path><path d="M31.157,24.83c0.086,0.585,0.191,1.076,0.303,1.564c0.118,0.481,0.242,0.945,0.387,1.406   c0.139,0.461,0.3,0.919,0.485,1.387c0.195,0.468,0.399,0.944,0.727,1.445c0.278-0.531,0.373-1.083,0.397-1.635   c0.016-0.551-0.064-1.101-0.226-1.627c-0.165-0.525-0.412-1.028-0.749-1.475C32.138,25.458,31.723,25.046,31.157,24.83z"></path><path d="M62.224,69.642c-1.515,3.716-2.886,7.497-4.01,11.353c-1.143,3.849-2.028,7.778-2.582,11.749   c1.105-3.853,2.346-7.643,3.657-11.401c1.334-3.752,2.75-7.474,4.275-11.15c1.5-3.687,3.112-7.33,4.761-10.96   c1.674-3.619,3.354-7.24,5.137-10.828c-2.267,3.306-4.294,6.777-6.148,10.331C65.447,62.286,63.764,65.933,62.224,69.642z"></path><path d="M57.065,62.576c-0.863,2.072-1.52,4.212-2.08,6.376c-0.568,2.161-1.002,4.357-1.342,6.572   c-0.313,2.218-0.535,4.456-0.532,6.709c0.002,2.241,0.173,4.532,0.872,6.674c-0.101-2.236,0.052-4.427,0.257-6.618   c0.226-2.188,0.504-4.374,0.835-6.554c0.308-2.186,0.675-4.363,1.013-6.555C56.438,66.992,56.783,64.8,57.065,62.576z"></path><path d="M49.552,77.392c-0.192-4.2-0.328-8.403-0.763-12.642c-0.373,2.102-0.555,4.22-0.658,6.338   c-0.11,2.12-0.101,4.241-0.027,6.365c0.103,2.12,0.268,4.241,0.599,6.349c0.325,2.102,0.775,4.207,1.568,6.193   c-0.204-2.121-0.33-4.212-0.443-6.31C49.729,81.587,49.628,79.491,49.552,77.392z"></path><path d="M44.096,75.417c-0.754-2.27-1.612-4.507-2.645-6.667c-1.029-2.156-2.182-4.272-3.642-6.174   c0.937,2.196,1.782,4.399,2.604,6.61c0.806,2.216,1.59,4.437,2.306,6.68c0.741,2.234,1.415,4.493,2.093,6.756   c0.67,2.266,1.309,4.546,2.019,6.829c-0.116-2.389-0.452-4.758-0.921-7.1C45.449,80.006,44.825,77.695,44.096,75.417z"></path><path d="M36.77,67.312c-0.38-0.883-0.843-1.726-1.373-2.525c-0.531-0.799-1.128-1.562-1.877-2.211   c0.234,0.959,0.543,1.851,0.875,2.726c0.331,0.875,0.677,1.735,1.045,2.584c0.363,0.852,0.75,1.687,1.141,2.529   c0.392,0.844,0.793,1.685,1.272,2.549c0.112-0.984,0.003-1.961-0.199-2.905C37.45,69.113,37.154,68.191,36.77,67.312z"></path></g></svg>