<svg fill="#054108" xmlns="http://www.w3.org/2000/svg" xmlns:xlink="http://www.w3.org/1999/xlink" version="1.1" x="0px" y="0px" viewBox="0 0 1224 1224" enable-background="new 0 0 1224 1224" xml:space="preserve"><path d="M458.222,300.006c-10.59-21.256-18.626-40.305-18.626-40.305l16.997,2.611c0,0-17.507-28.431-25.497-43.088  c-8.695-15.949-27.621-65.289-27.621-65.289s-19.831,60.066-29.745,81.611c-10.249,22.271-38.952,67.246-38.952,67.246l17.706-3.915  c0,0-2.705,1.908-5.665,8.487c-0.976,2.17-19.123,26.116-19.123,26.116l17.706-3.917c0,0-0.708,9.141-13.456,37.867  c-16.729,37.702-45.326,80.037-45.326,80.037l32.577-5.223c0,0-2.832,20.18-15.58,44.664  c-22.615,43.434-44.307,53.537-44.307,53.537l29.579-3.918c0,0-13.561,50.324-30.598,84.879  c-26.558,53.863-49.576,82.59-49.576,82.59l61.894-12.283c0,0-10.077,31.297-21.525,58.801  c-17.528,42.111-48.867,65.455-48.867,65.455l60.198-12.408l-27.621,23.504l83.673-18.568  c36.199-64.843,42.048-76.539,42.048-76.539l-37.364,5.715l53.084-69.641l-51.042,7.529c0,0,28.583-47.055,65.331-107.283  c31.938-52.341,45.991-96.32,45.991-96.32l-45.991,11.623c0,0,26.65-43.363,34.708-54.582c11.2-15.585,27.283-55.041,27.283-55.041  l-51.216,15.254c0,0,39.758-58.885,52.517-78.788C453.942,307.105,456.083,303.615,458.222,300.006z"></path><path d="M990.326,773.667c-5.134-6.448-31.681-43.63-31.681-43.63l43.349,5.841c0,0-35.429-26.79-60.311-68.607  c-24.448-41.087-28.382-48.444-28.382-48.444l23.325,2.915l-34.187-42.389l31.86,3.811c0,0-18.569-28.766-42.441-65.583  c-20.745-31.995-30.23-59.097-30.23-59.097l26.789,10.442c0,0-15.305-30.503-20.505-37.34c-7.229-9.499-17.899-33.754-17.899-33.754  l32.102,8.612c0,0-25.72-35.931-33.991-48.088c-17.204-25.29-36.126-66.927-36.126-66.927l15.295,1.924  c0,0-16.386-25.047-23.904-37.985c-8.184-14.078-26.353-57.826-26.353-57.826s-16.295,54.31-24.651,73.859  c-8.638,20.208-33.254,61.213-33.254,61.213l15.77-3.943c0,0-2.376,1.775-4.868,7.744c-0.642,1.537-10.326,15.21-14.55,21.144  c0.339,0.661,0.679,1.324,1.021,1.985l12.802-3.201c0,0,3.77,6.632-0.889,19.978c24.611,44.484,53.892,85.374,53.892,85.374  l-51.146-8.24c0,0,8.877,30.965,28.211,65.738c34.296,61.69,70.273,80.273,70.273,80.273l-55.096-7.359  c0,0,20.524,67.973,46.435,117.089c22.979,43.554,48.979,75.425,62.819,94.816c10.998,2.608,20.519,4.729,20.519,4.729l-21.693-25.1  c0,0,43.798,10.628,58.12,11.875c17.351,1.511,68.567-0.852,68.567-0.852S1003.719,790.488,990.326,773.667z"></path><path d="M730.131,835.875c0,0,6.484,20.137,15.708,45.324l-2.914-42.785L730.131,835.875z"></path><path d="M645.026,382.679l2.985-0.661c-0.324-0.671-0.646-1.342-0.966-2.013C645.812,381.642,645.026,382.679,645.026,382.679z"></path><path d="M715.531,589.415c0.007,0.008,0.014,0.015,0.021,0.023C715.545,589.43,715.538,589.422,715.531,589.415  C715.531,589.415,715.531,589.415,715.531,589.415z"></path><path d="M839.471,650.066h20.916l-22.746-3.479C837.641,646.588,838.06,647.425,839.471,650.066z"></path><path d="M1080.555,582.364c-3.577-4.755-22.001-32.112-22.001-32.112l31.167,5.071c0,0-25.038-20.034-42.168-50.703  c-16.832-30.136-19.525-35.523-19.525-35.523l16.775,2.565l-23.833-31.267l22.917,3.38c0,0-12.833-21.126-29.333-48.168  c-14.339-23.501-20.649-43.247-20.649-43.247l20.649,5.218c0,0-11.965-19.469-15.583-24.506c-5.029-6.998-12.25-24.713-12.25-24.713  l22.995,6.849c0,0-17.851-26.438-23.579-35.375c-11.917-18.591-24.749-49.014-24.749-49.014l10.999,1.69  c0,0-11.329-18.4-16.5-27.885c-5.627-10.322-17.875-42.253-17.875-42.253s-12.834,38.873-19.25,52.816  c-6.633,14.413-25.208,43.519-25.208,43.519l11.458-2.534c0,0-1.75,1.235-3.666,5.493c-0.632,1.404-12.375,16.901-12.375,16.901  l11.457-2.535c0,0-0.457,5.916-8.707,24.506c-10.827,24.399-29.333,51.797-29.333,51.797l21.082-3.38c0,0-1.779,12.646-9.695,28.145  c0.804,1.317,1.606,2.604,2.406,3.852c7.935,12.378,32.661,48.999,32.661,48.999l-31.853-9.487c0,0,10.002,24.539,16.968,34.231  c5.012,6.977,21.585,33.944,21.585,33.944l-28.603-7.228c0,0,13.741,27.351,33.603,59.902  c22.854,37.457,30.308,52.099,30.308,52.099L924,589.438L956,632h-25l9,16.327l38.117-1.739c5.08,1.812-8.637-55.95,2.471-51.097  c6.047,2.642,37.209,10.486,37.209,10.486l-15.16-18.543c0,0,31.397,8.535,41.709,9.718c12.492,1.433,49.5,0.74,49.5,0.74  S1089.888,594.768,1080.555,582.364z"></path><path d="M715.531,589.415c-3.391,3.21-5.625,4.879-5.625,4.879l8.494-1.75c-0.938-0.999-1.889-2.034-2.849-3.105  C715.545,589.43,715.538,589.422,715.531,589.415z"></path><path d="M715.552,589.438c0.96,1.072,1.91,2.107,2.849,3.105l0,0C717.462,591.545,716.513,590.509,715.552,589.438z"></path><path d="M328.393,762.035c-0.011,0.02-0.021,0.039-0.033,0.06C328.371,762.074,328.382,762.055,328.393,762.035z"></path><path d="M320.165,777.037c0.157-0.285,0.312-0.567,0.467-0.848l0,0C320.477,776.47,320.322,776.752,320.165,777.037L320.165,777.037  z"></path><path d="M329.623,759.777c-0.064,0.118-0.128,0.235-0.193,0.355C329.495,760.013,329.558,759.896,329.623,759.777z"></path><path d="M330.548,758.075L330.548,758.075c-0.081,0.148-0.163,0.299-0.245,0.45C330.383,758.379,330.47,758.22,330.548,758.075z"></path><path d="M227.726,760.142c0.255-0.613,0.509-1.23,0.763-1.847l-0.21-2.943c0.451,0.06,0.894,0.122,1.337,0.185  c10.644-26.274,19.635-46.195,19.635-46.195l-61.894,10.283c0,0,25.018-34.727,51.576-88.59  c17.038-34.555,34.598-82.878,34.598-82.878l-40.579,4.918c0,0,19.267-10.901,39.349-42.676c-5.689-9.544-10.31-21.423-15.301-32.67  c-8.25-18.59-8.707-24.506-8.707-24.506l11.457,2.535c0,0-11.743-15.497-12.375-16.901c-1.916-4.258-3.666-5.493-3.666-5.493  l11.458,2.534c0,0-18.575-29.106-25.208-43.519c-6.416-13.943-19.25-52.816-19.25-52.816s-12.248,31.931-17.875,42.253  c-5.171,9.485-16.5,27.885-16.5,27.885l10.999-1.69c0,0-12.832,30.422-24.749,49.014c-5.729,8.936-23.579,35.375-23.579,35.375  l22.995-6.849c0,0-7.221,17.716-12.25,24.713c-3.618,5.037-15.583,24.506-15.583,24.506l20.649-5.218  c0,0-6.311,19.746-20.649,43.247c-16.5,27.042-29.333,48.168-29.333,48.168l22.917-3.38l-23.833,31.267l16.775-2.565  c0,0-2.693,5.388-19.525,35.523c-17.13,30.669-42.168,50.703-42.168,50.703l31.167-5.071c0,0-18.424,27.357-22.001,32.112  c-9.333,12.404-13.291,15.528-13.291,15.528s37.008,0.692,49.5-0.74c10.312-1.183,41.709-9.718,41.709-9.718l-15.16,18.543  c0,0,31.162-7.845,37.209-10.486c11.107-4.853,17.323-7.573,22.403-9.386l-7.781,55.515  C193.208,809.054,215.71,789.009,227.726,760.142z"></path><path d="M271.097,959.275c7.967-10.59,49.002-71.521,49.002-71.521l-69.418,11.294c0,0,55.768-44.62,93.92-112.929  C382.089,719,388.089,707,388.089,707l-29.364,5.715l46.084-69.64l-52.042,11.528c0,0,28.583-51.054,65.331-111.282  C450.036,490.98,464.089,447,464.089,447l-45.991,11.624c0,0,26.65-43.363,34.708-54.582c11.2-15.585,27.283-55.042,27.283-55.042  l-51.216,15.255c0,0,39.758-58.885,52.517-78.789c26.542-41.408,55.123-109.166,55.123-109.166l-24.499,3.765  c0,0,25.234-40.98,36.75-62.106c12.534-22.991,39.812-94.107,39.812-94.107s28.583,86.579,42.875,117.634  c14.773,32.102,56.145,96.927,56.145,96.927l-25.52-5.644c0,0,3.898,2.75,8.164,12.234c1.408,3.128,27.564,37.643,27.564,37.643  l-25.521-5.646c0,0,1.021,13.176,19.395,54.581c24.113,54.343,65.334,115.365,65.334,115.365l-46.957-7.528  c0,0,4.082,29.087,22.457,64.377c32.596,62.605,60.188,78.168,60.188,78.168l-38.959-6.647c0,0,19.547,72.535,44.104,122.342  c38.281,77.639,71.459,119.044,71.459,119.044L780.09,799c0,0,14.525,45.111,31.025,84.754  c25.266,60.699,70.438,94.345,70.438,94.345l-86.77-17.883l39.812,33.878l-165.375-36.7c0,0-18.898-4.476-41.516-7.475  l10.893,152.398H534.472l9.175-134.71c-11.314,4.037-25.161,10.097-49.899,20.905c-13.468,5.882-82.873,23.354-82.873,23.354  l33.767-41.299c0,0-69.932,19.01-92.896,21.644c-27.823,3.19-110.25,1.648-110.25,1.648S250.311,986.902,271.097,959.275z"></path></svg>