<svg fill="#054108" xmlns="http://www.w3.org/2000/svg" xmlns:xlink="http://www.w3.org/1999/xlink" version="1.1" x="0px" y="0px" viewBox="0 0 100 100" enable-background="new 0 0 100 100" xml:space="preserve"><path fill-rule="evenodd" clip-rule="evenodd" d="M70.598,64.689c-13.217,5.984-13.733,17.62-13.645,20.604  c-1.353,1.621-3.001,2.977-4.375,3.981c1.011-5.247,2.002-12.423,2.912-20.119c0.058,0.003,0.115-0.005,0.172-0.027  c0.231-0.09,4.708-1.951,7.992-5.066c2.989-0.981,12.98-5.795,15.396-19.352c-13.845,4.35-15.754,15.835-16.022,18.819  c-2.755,2.573-6.403,4.287-7.402,4.729c1.243-2.506,2.267-5.768,2.237-9.648c1.33-1.303,3.228-3.374,4.574-5.763  c2.567-1.813,10.703-9.355,9.021-23.021c-11.952,8.225-10.396,19.766-9.774,22.695c-1.122,1.952-2.64,3.704-3.856,4.956  c-0.078-1.304-0.284-2.673-0.631-4.1c0.307-3.077,0.594-6.084,0.857-8.935c0.453-1.185,0.825-2.474,1.073-3.872  c0.473-0.426,1.24-1.149,2.108-2.088c1.382-0.904,8.488-7.194,6.543-18.564c-8.604,6.538-7.528,14.976-6.891,17.718  c-0.577,0.644-1.12,1.195-1.572,1.634c0.237-2.054,0.208-4.318-0.205-6.795c0.423-5.019,0.682-8.388,0.724-8.936  c0.004-0.05-0.008-0.096-0.018-0.142c0.028-0.126,0.056-0.263,0.082-0.406c1.955-1.583,7.181-6.923,3.299-16.419  c-2.991,2.764-4.343,5.778-4.849,8.494c-1.145-1.771-2.98-3.542-5.881-5.069c-1.607,8.305,4.01,12.825,6.256,14.159  c-0.106,1.35-0.363,4.582-0.739,8.981c-0.953,0.693-1.805,1.405-2.567,2.13c0.235-2.926-0.108-6.258-1.457-9.925  c-9.996,9.595-6.559,19.581-5.241,22.478c-0.823,1.371-1.651,2.494-2.197,3.193c-0.861-10.565-1.697-21.479-2.382-30.864  c2.068-1.292,8.021-5.988,5.229-15.97c-5.949,4.344-6.678,10.119-6.426,13.552c-0.743-2.812-2.895-7.252-9.181-9.252  c1.454,8.35,7.72,11.191,9.315,11.673c0.158,2.164,0.64,8.713,1.291,17.126c-0.55-0.419-1.433-1.124-2.418-2.037  c0.385-2.789,0.701-11.288-8.462-17.021c-0.912,11.496,6.738,17.119,8.193,17.896c1.411,1.271,2.555,2.086,2.77,2.237  c0.347,4.465,0.738,9.402,1.151,14.46c-0.605-0.45-1.946-1.492-3.368-2.902c0.569-3.131,1.434-13.655-10.613-20.496  c-1.45,13.956,8.557,20.546,10.323,21.366c1.803,1.74,3.406,2.857,3.538,2.947c0.06,0.044,0.13,0.062,0.2,0.066  c0.417,5.083,0.855,10.257,1.292,15.166c-0.674-0.512-1.87-1.47-3.143-2.731c0.569-3.132,1.439-13.655-10.613-20.494  c-0.239,2.306-0.162,4.406,0.136,6.317c-2.199-2.055-5.121-3.908-9.004-5.21c2.151,13.598,12.047,18.605,15.021,19.649  c3.141,3.091,7.42,5.016,7.849,5.203c0.6,6.598,1.19,12.565,1.713,16.956c-0.542-0.416-1.451-1.148-2.466-2.103  c0.411-2.784,0.786-11.283-8.325-17.093c-0.097,1.111-0.092,2.151-0.042,3.155c-2.014-2.488-4.87-4.857-8.927-6.693  c0.765,13.745,10.102,19.724,12.954,21.062c2.884,3.485,7.112,5.873,7.323,5.989c0.018,0.01,0.037,0.011,0.055,0.018  c0.259,1.696,0.49,2.79,0.683,3.109c0.1,0.164,0.273,0.255,0.452,0.255c0.093,0,0.188-0.025,0.273-0.076  c0.25-0.149,0.332-0.476,0.183-0.728c-0.021-0.034-0.041-0.082-0.063-0.14c0.041-0.05,0.093-0.09,0.113-0.154  c0.329-1.011,0.66-2.299,0.989-3.811c0.016-0.002,0.03,0.002,0.046-0.002c0.232-0.069,4.898-1.387,8.536-4.092  c3.079-0.622,13.576-4.218,17.572-17.388c-4.142,0.778-7.351,2.275-9.842,4.078C69.578,71.427,70.395,68.34,70.598,64.689z   M56.382,50.68c-0.017-0.044-0.028-0.087-0.045-0.131c-9.991,9.596-6.559,19.582-5.235,22.481c-0.923,1.53-1.847,2.751-2.375,3.412  c-0.535-5.665-1.107-12.196-1.68-19.053c0.463-0.381,1.747-1.477,3.153-3.023c0.919-0.507,4.122-2.85,6.508-7.069  C56.602,48.408,56.493,49.538,56.382,50.68z M49.219,48.588c0.032-0.026,0.07-0.06,0.107-0.093  c-0.064,2.223,0.271,4.018,0.525,5.027c-1.145,1.283-2.238,2.293-2.889,2.862c-0.115-1.387-0.23-2.786-0.346-4.192  C46.966,51.786,48.075,50.43,49.219,48.588z M40.003,65.966c-0.027-0.397-0.082-0.95-0.186-1.614  c1.666,1.578,3.142,2.479,3.724,2.747c1.788,1.726,3.374,2.842,3.529,2.942c0.021,0.239,0.043,0.478,0.064,0.715  C45.931,70.181,42.556,68.445,40.003,65.966z M42.813,86.522c0.016-0.486,0.013-1.206-0.056-2.089  c1.492,1.713,2.895,2.694,3.435,2.99c1.481,1.354,2.684,2.203,2.795,2.288c0.024,0.017,0.052,0.023,0.078,0.034  c0.101,0.808,0.198,1.547,0.292,2.22C48.168,91.24,45.062,89.205,42.813,86.522z M50.599,93.325  c-0.468-2.966-1.083-8.608-1.765-15.758c0.02-0.016,0.042-0.025,0.059-0.045c0.105-0.116,1.381-1.598,2.704-3.728  c0.456-0.371,1.512-1.443,2.629-3.116C53.086,80.118,51.835,88.58,50.599,93.325z M60.153,86.749  c-2.966,2.173-6.675,3.436-7.826,3.793c0.005-0.026,0.011-0.055,0.017-0.08c1.53-1.06,3.632-2.696,5.301-4.704  c0.778-0.366,2.049-1.095,3.49-2.219C60.592,84.917,60.298,86.062,60.153,86.749z"></path></svg>