<svg fill="#BE5B0C" xmlns="http://www.w3.org/2000/svg" xmlns:xlink="http://www.w3.org/1999/xlink" version="1.1" x="0px" y="0px" viewBox="0 0 100.006 100.006" enable-background="new 0 0 100.006 100.006" xml:space="preserve"><path d="M61.813,36.367c-0.135-0.559-0.396-1.01-0.936-1.106c-0.471-0.085-1.021,0.235-1.35,0.542  c-0.278,0.258-0.423,0.991-0.658,1.153c-4.174,2.869-8.89,5.091-11.817,9.363c-1.443,2.107-2.077,4.746-2.709,7.18  c-0.572,2.202-1.273,4.409-2.501,6.345c-0.592,0.933-1.311,1.807-2.091,2.588c-0.307,0.307-2.647,1.972-1.956,2.324  c0.688,0.35,2.506-0.058,3.249-0.14c1.422-0.158,2.834-0.434,4.209-0.827c2.809-0.803,5.476-2.146,7.904-3.76  c1.273-0.847,2.486-1.805,3.608-2.845c4.141-3.84,6.06-9.457,5.7-15.036c-0.074-1.158-0.219-2.313-0.43-3.455  C61.938,38.158,62.003,37.155,61.813,36.367z M54.869,56.71c-3.674,3.457-8.4,4.845-13.084,6.261c2.41-2.23,3.615-6.043,4.315-9.019  c1.164-4.945,2.635-8.609,7.037-11.521c1.493-0.987,3.102-1.87,4.621-2.861c-0.003,0.006-0.013,0.016-0.015,0.021  c-0.7,1.828-1.278,3.695-2.025,5.506c-0.987,2.396-2.474,4.527-3.63,6.836c-0.247,0.494,0.743,0.148,0.876,0.037  c3.487-2.901,6.065-8.063,6.457-12.641C60.757,45.726,59.982,51.898,54.869,56.71z"></path></svg>