<svg fill="#BE5B0C" xmlns="http://www.w3.org/2000/svg" xmlns:xlink="http://www.w3.org/1999/xlink" version="1.1" x="0px" y="0px" viewBox="0 0 100 100" enable-background="new 0 0 100 100" xml:space="preserve"><path d="M37.81,43.39c4.155-1.418,8.069-5.418,10.158-10.45c0.217-0.521,0.691-0.866,1.278-0.842  c0.554,0.008,1.04,0.349,1.239,0.869c1.722,4.513,4.524,9.346,15.934,9.88c1.736-10.769-5.248-13.908-8.359-14.898  c-2.362-0.752-6.333-2.855-6.503-5.411c-0.202-3.041,0.324-5.742,2.064-7.127c2.367-1.884,5.428-2.391,6.793-2.857  c-0.17-1.007-1.196-5.083-2.509-6.537c-1.28,0.872-3.71,3.485-6.345,5.06c-3.188,1.906-3.429,5.333-4.134,8.701  c-0.774,3.698-3.044,6.882-6.709,8.429c-3.405,1.437-6.128,3.182-8.063,7.182c-1.141,2.357-1.222,5.72-0.412,8.687  C34.395,44.42,36.735,43.757,37.81,43.39z M54.118,30.114c0.206-0.532,5.979,1.232,8.704,4.774c0.347,0.452,0.263,1.1-0.189,1.447  c-0.187,0.145-0.408,0.214-0.628,0.214c-0.309,0-0.616-0.139-0.819-0.403C58.82,33.072,53.913,30.645,54.118,30.114z M36.29,35.1  c1.782-2.743,6.682-4.658,7.19-4.398c0.507,0.26-3.214,2.584-5.303,5.235c-0.261,0.331-0.548,0.614-0.944,0.614  c-0.139,0-0.281-0.029-0.417-0.089C36.294,36.23,35.98,35.578,36.29,35.1z M39.93,51.064c-0.984-2.149-1.498-4.125-1.765-5.536  c-1.402,0.479-2.833,0.738-4.252,0.738c-0.627,0-1.248-0.068-1.866-0.169c-0.445,0.771-1.172,2.449-0.803,4.799  c0.088,0.563-0.296,1.092-0.86,1.18c-0.054,0.009-0.108,0.013-0.161,0.013c-0.5,0-0.938-0.363-1.019-0.872  c-0.505-3.218,0.64-5.51,1.233-6.442c-0.231-0.816-0.403-1.618-0.5-2.4c-1.287,1.498-2.934,3.982-3.145,7.084  c-0.218,3.202,1.124,6.427,3.991,9.593C35.486,56.874,38.926,52.457,39.93,51.064z M40.157,44.696  c0.492,2.849,2.252,9.418,8.477,13.613c5.559-3.416,8.421-11.955,9.275-14.916C53.86,41.918,52,39.537,50,36.834v7.973  c0,0.57-0.43,1.032-1,1.032s-1-0.462-1-1.032v-7.381C46,40.677,43.143,43.193,40.157,44.696z M34.472,74.298  c5.498-2.323,5.694-5.343,5.643-6.135c-2.531-3.803-3.764-7.816-4.269-9.856c-1.301,1.021-2.776,1.969-4.399,2.695  c-0.132,0.966-0.266,3.284,1.003,5.477c0.286,0.494,0.117,1.125-0.376,1.41c-0.163,0.095-0.341,0.139-0.516,0.139  c-0.357,0-0.703-0.184-0.894-0.515c-1.634-2.824-1.427-5.727-1.245-6.916c-0.911-0.989-1.688-1.988-2.335-2.996  C26.309,60.917,26.117,67.712,34.472,74.298z M41.819,70.394c-0.396,1.082-1.202,2.343-2.708,3.57  c0.88,2.398,4.322,10.898,9.876,13.608c7.471-4.667,10.315-13.056,10.755-14.484c-1.252-1.216-2.305-2.471-2.992-3.354  C55.078,71.707,53,73.676,50,75.444v4.454c0,0.57-0.43,1.032-1,1.032s-1-0.462-1-1.032v-4.625  C45,74.047,43.445,72.314,41.819,70.394z M66.528,44.906c-2.567-0.109-4.774-0.414-6.649-0.895c-0.421,1.475-1.279,4.129-2.671,6.95  c1.108,1.44,4.74,5.76,10.065,8.076c3.173-4.152,4.608-8.941,3.949-13.244c-0.339-2.215-1.249-4.161-2.605-5.69  c0.044,1.133-0.037,2.368-0.263,3.708c0.316,0.933,1.195,4.06,0.088,7.248c-0.148,0.426-0.547,0.694-0.975,0.694  c-0.112,0-0.227-0.019-0.339-0.057c-0.538-0.187-0.823-0.775-0.636-1.314C67.251,48.192,66.818,45.955,66.528,44.906z   M60.035,56.876c-1.94-1.587-3.011-2.858-3.893-3.93C54.591,55.624,52,58.643,50,59.868v5.581c0,0.57-0.43,1.032-1,1.032  s-1-0.462-1-1.032v-5.121c-3-2.068-5.491-4.678-6.982-7.228c-0.743,0.958-1.905,2.308-3.383,3.688  c0.315,1.558,2.853,12.799,11.355,16.871c10.907-6.735,11.066-16.467,11.068-16.467L60.035,56.876z M65.933,75.949  c-0.034,0.946-0.259,3.682-1.708,5.666c-0.203,0.276-0.516,0.35-0.835,0.35c-0.211,0-0.424-0.065-0.608-0.199  c-0.461-0.337-0.56-0.982-0.225-1.442c0.936-1.282,1.234-3.136,1.3-4.186c-0.836-0.406-1.657-0.948-2.435-1.563  c-0.651,1.848-2.21,5.572-5.139,9.184c0.476,0.98,1.695,3.093,3.826,4.328c5.58-3.593,10.033-10.236,9.065-15.51  C68.128,73.845,67.024,74.981,65.933,75.949z M68.629,60.646c-0.023,1.103-0.221,4.411-1.725,7.093  c-0.189,0.338-0.54,0.527-0.901,0.527c-0.171,0-0.344-0.042-0.504-0.132c-0.497-0.279-0.674-0.908-0.395-1.405  c1.131-2.018,1.389-4.584,1.447-5.769c-1.682-0.721-3.204-1.609-4.545-2.557c-0.257,1.862-1.114,5.636-3.947,9.64  c1.083,1.437,3.854,4.857,6.658,6.226c4.794-4.339,10.169-12.71,7.428-19.714C71.335,56.664,70.152,58.725,68.629,60.646z   M50,89.345v2.938c0,0.57-0.43,1.032-1,1.032s-1-0.462-1-1.032v-2.923c-2-1.02-3.795-2.653-5.265-4.481  c-0.349,0.597-0.865,1.325-1.569,2.207c0.51,1.534,2.505,6.469,7.798,8.929c6.116-4.034,7.455-8.21,7.468-8.254l0.012-0.072  c-0.76-0.837-1.235-1.585-1.626-2.277C53.459,86.839,52,88.19,50,89.345z M37.339,75.174c-0.544,0.315-1.166,0.618-1.837,0.911  c0.209,0.882,0.596,2.364,1.15,3.838c0.2,0.533-0.07,1.129-0.604,1.329c-0.119,0.044-0.242,0.066-0.363,0.066  c-0.417,0-0.81-0.255-0.967-0.669c-0.725-1.931-1.173-3.819-1.342-4.594c-1.132-0.88-2.132-1.769-2.999-2.658  c0.115,3.307,1.31,9.241,7.634,14.19c2.475-2.729,3.145-4.074,3.325-4.57C39.313,80.005,37.978,76.855,37.339,75.174z"></path></svg>