<svg fill="#DCBD23" xmlns="http://www.w3.org/2000/svg" xmlns:xlink="http://www.w3.org/1999/xlink" version="1.1" x="0px" y="0px" viewBox="0 0 100 100" enable-background="new 0 0 100 100" xml:space="preserve"><path d="M72.487,21.911c-0.097-0.049-0.973-0.617-1.049-1.091c-0.129-0.802-0.268-1.955-0.965-2.483  c-1.62-1.232-3.076,1.002-4.546,0.384c-1.44-0.702-3.938-1.511-5.288-0.138c-1.736,1.503-0.39,3.18,0.631,4.508  c0.368,0.48-0.193,1.69-0.211,2.224c-0.058,1.115,0.719,1.94,1.757,2.228c1.028,0.284,1.844-0.088,2.813-0.292  c1.366-0.287,1.749,0.561,2.924,0.933c0.606,0.192,1.892,0.182,0.923-0.594c-0.73-0.584-1.198-1.392-2.066-1.811  c-0.829-0.421-1.979-0.334-2.846-0.086c-0.315,0.092-1.293,0.208-1.395-0.182c0.001-1.026,0.619-1.818,0.349-2.925  c-0.164-0.424-1.621-2.171-1.121-2.261c1.516-0.224,2.528,0.795,4.006,0.801c0.952-0.022,1.803-0.576,2.685-0.874  c-0.003-0.007-0.023,0.006,0.001-0.003c0.459,1.374,4.26,3.939,3.344,4.309c-1.079,0.383-2.025,0.776-2.068,2.088  c-0.021,0.612,0.395,2.365,0.782,0.897c0.391-1.479,0.86-1.396,2.224-1.759c0.824-0.219,1.695-0.58,1.358-1.594  C74.393,23.182,73.46,22.307,72.487,21.911z"></path><path d="M38.108,38.243c0.691-1.134-0.926-1.995-1.619-2.542c-0.716-0.342-0.351-1.036-0.622-1.646  c-0.43-0.965-1.586-1.595-2.578-1.813c-1.873-0.41-4.14-1.231-6.01-0.559c-0.615,0.222-1.188,0.587-1.618,1.086  c-0.527,0.506-0.65,1.142-1.416,1.401c-1.351,0.459-4.719,0.496-3.929,2.907c0.287,0.877,1.035,1.271,1.776,1.701  c0.18,0.104,0.148,0.114,0.093,0.32c-0.45,1.631,0.516,2.936,2.004,3.516c1.37,0.532,2.894,0.76,4.331,0.31  c0.282-0.07,3.054-1.354,1.876-1.354c-1.798,0.003-3.701,0.665-5.365-0.401c-1.907-1.004-0.266-1.427-0.719-2.881  c-0.246-0.793-2.21-1.646-0.676-1.735c1.154-0.164,2.159-0.359,3.029-1.234c0.815-0.821,1.142-1.792,2.556-1.478  c1.197,0.143,2.408,0.442,3.591,0.684c1.548,0.314,0.787,1.232,1.728,2.276c0.253,0.281,1.485,0.72,1.09,1.052  c-0.066,0.127-0.49,0.316-0.562,0.357c-1.335,0.789-2.716,1.927-2.577,3.658c0.064,0.808,0.727-0.053,0.899-0.313  c0.395-0.591,0.887-1.087,1.523-1.422c0.802-0.396,1.565-0.771,2.321-1.251C37.439,38.755,38.052,38.488,38.108,38.243z"></path><path d="M75.723,57.144c0.167-1.659-1.688-2.697-2.92-3.366c-1.119-0.677-1.465-2.423-2.958-2.281  c-0.936,0.088-1.614,0.895-2.222,1.523c-0.444,0.461-2.623,3.168-0.64,1.968c0.773-0.469,1.494-1.025,2.229-1.548  c0.125-0.062,0.323-0.285,0.48-0.265c0.378-0.084,0.401,0.258,0.519,0.496c0.302,0.615,0.783,1.159,1.312,1.592  c0.252,0.206,1.625,1.163,2.053,1.525c-1.212,0.611-1.106,2.034-0.77,3.144c-0.015-0.048-1.438,0.401-1.692,0.553  c-1.197,0.709-1.336,1.833-2.222,2.729c-0.814,0.825-3.003,0.878-3.787,0.012c-0.575-0.637-1.065-1.417-1.305-2.246  c-0.163-0.563,0.48-0.797,0.807-1.185c0.541-0.651,0.696-1.316,0.361-2.121c-0.137-0.166-0.379-0.487-0.553-0.173  c-0.278,0.502-0.278,0.893-0.727,1.249c-0.414,0.277-1.067,0.547-1.353,0.952c-0.948,1.341,0.35,3.656,1.146,4.766  c1.308,1.665,3.38,1.777,5.346,1.363c1.785-0.448,2.078-1.801,3.126-3.021c0.388-0.452,0.898-0.448,1.432-0.563  c0.952-0.207,1.723-0.976,1.779-1.973c0.025-0.462-0.081-1.164-0.393-1.616C75.313,58.434,75.669,57.677,75.723,57.144z"></path><path d="M40.315,45.229c-0.765,0.043-0.795,0.957-1.021,1.483c-0.418,1.468-2.564,4.392-2.278,4.863  c0.234,0.385,0.741,0.227,1.063,0.079c0.923-0.349,1.601-0.891,2.213-1.646c0.722-0.892,1.109-1.886,1.013-3.058  C41.258,46.377,41.145,45.179,40.315,45.229z"></path><path d="M60.328,43.085c-0.939-0.227-2.278,0.246-3.098,0.662c-1.472,0.748-2.637,1.905-2.819,3.623  c-0.057,0.542-0.183,1.618,0.448,1.917c0.646,0.307,1.496-0.907,1.496-1.468c0.767-1.46,2.159-2.245,3.459-3.172  C60.213,44.364,61.373,43.337,60.328,43.085z"></path><path d="M29.113,36.389c-2.343-0.316-2.016,2.341-0.611,3.129c0.816,0.458,2.134,0.034,2.293-1.143  C30.949,37.242,30.188,36.533,29.113,36.389z"></path><path d="M68.969,24.057c0.522-1.79-2.399-2.131-2.75-0.535C65.989,24.564,68.564,25.435,68.969,24.057z"></path><path d="M69.216,60.198c0.689-0.688,1.326-1.679,0.486-2.521c-0.657-0.658-1.527-0.712-2.268-0.155  c-0.756,0.567-1.436,1.578-0.832,2.493C67.326,61.11,68.345,61.068,69.216,60.198z"></path><path d="M41.206,65.899c0.097-0.128,0.213-0.241,0.301-0.373c0.745-1.116-0.308-1.025-1.13-0.625  c-1.834,0.892-3.569,2.021-5.293,3.163c-0.526-0.46-1.628-0.299-2.225-0.365c-0.9-0.102-1.854-0.205-2.735-0.415  c-2.002-0.477-3.609-0.795-5.666-0.558c-0.84,0.097-3.137,0.591-3.054,1.798c0.087,1.242,2.309,0.951,3.082,1.119  c2.29,0.299,4.646,0.947,6.954,0.767c-0.076,0.047-0.151,0.098-0.228,0.144c-1.337,0.795-2.701,1.563-4.089,2.297  c-1.202-0.969-3.157-1.481-4.564-1.769c-2.464-0.506-5.069-0.256-7.214,1.153c-0.65,0.428-3.192,2.21-2.078,3.165  c0.454,0.389,1.239,0.193,1.745,0.025c0.312-0.104,4.367-1.336,5.682-1.276c1.134,0.053,2.266,0.144,3.398,0.217  c-2.824,1.329-5.736,2.464-8.739,3.257c-1.143,0.301-2.342,0.459-3.442,0.9c-0.712,0.286-1.528,1.006-0.387,1.374  c2.255,0.727,4.974,0.127,7.206-0.305c2.176-0.457,4.429-1.052,6.449-2.005c-0.234,0.197-0.452,0.396-0.628,0.522  c-1.003,0.716-1.775,1.527-2.811,2.175c-0.716,0.447-1.582,0.843-2.356,1.196c-0.745,0.339-2.487,1.003-1.858,2.156  c0.454,0.832,1.864,0.654,2.616,0.582c2.163-0.206,4.015-1.049,5.398-2.855c0.559-0.81,1.281-1.88,1.472-2.872  c0.082-0.429,0.144-1.121-0.298-1.391c-0.134-0.082-0.273-0.1-0.416-0.093c1.526-0.762,3.007-1.596,4.448-2.489  c-0.56,0.724-0.997,1.616-1.462,2.342c-1.78,2.776-2.915,6.882-5.892,8.572c-0.491,0.279-5.113,1.624-3.647,2.509  c2.45,1.478,7.138-0.535,8.592-2.408c0.297-0.382,0.619-0.737,0.836-1.166c0.601-1.311,1.271-2.629,1.819-3.961  c0.706-1.721,1.276-3.701,1.4-5.586c0.027-0.397-0.047-0.941-0.299-1.142c2.576-1.704,5.014-3.613,7.27-5.775  c0.171-0.164,0.339-0.34,0.51-0.508c0.063,0.403,0.14,0.775,0.182,1.007c0.189,1.041,0.647,2.112,0.717,3.157  c0.037,0.571-0.007,1.129,0.016,1.701c0.036,0.938-0.151,2.102-0.307,3.033c-0.124,0.753-0.829,3.481,0.627,3.47  c1.074-0.008,1.718-1.866,2.116-2.614c0.802-2.319,1.436-4.829,0.441-7.229C43.098,68.547,42.367,66.903,41.206,65.899z"></path><path d="M35.558,74.395c-0.772,2.841-1.918,5.765-3.283,8.376c-0.393,0.548-2.399,2.781-0.821,3.108  c1.235,0.254,2.537-1.002,3.323-1.754c1.243-1.171,1.781-2.657,2.36-4.207c0.543-1.456,1.076-2.874,1.103-4.45  c0.019-1.163-0.021-2.796-0.807-3.771C35.686,69.531,35.831,73.396,35.558,74.395z"></path><path d="M91.501,46.091c-0.177-0.48-0.585-1.335-0.737-1.783c-0.969-2.853-4.321-4.344-7.098-5.45  c-0.206-0.081-0.416-0.167-0.628-0.251c0.383-0.947,0.7-1.92,0.914-2.928c0.704-3.313,0.351-6.817-0.542-10.06  c-1.713-6.223-6.565-10.807-12.56-12.947c-6.605-2.359-14.428-0.812-20.287,2.822c-5.562,3.449-6.972,9.502-6.634,15.617  c-2.761-2.61-6.174-4.502-9.878-5.678c-5.771-1.832-11.872-0.241-16.892,2.934c-2.418,1.529-4.676,3.505-6.139,5.991  c-1.648,2.802-2.443,6.316-2.69,9.529c-0.19,2.459,0.627,7.292,0.642,7.323c1.062,4.165,3.3,7.985,6.57,10.96  c4.843,4.403,11.699,4.803,17.793,3.252c3.029-0.771,5.957-2.002,8.614-3.648c0.308-0.19,0.626-0.38,0.927-0.585  c0.163,0.968,0.368,1.927,0.664,2.862c1.93,6.106,6.993,10.94,13.145,12.697c5.624,1.605,11.71,0.351,16.399-3.092  c2.458-1.804,4.491-4.151,5.984-6.807c0.219-0.389,0.979-2.041,1.123-2.441c0.994-2.802,1.489-5.783,1.465-8.756  c-0.027-3.655-0.881-7.342-2.621-10.534c0.167-0.086,2.151-2.822,2.854-4.103c2.115,1.772,4.471,3.272,6.59,5.057  c0.485,0.409,2.367,3.339,3.102,1.682C91.803,47.254,91.668,46.589,91.501,46.091z M34.739,61.268  c-0.373-1.007-1.876-1.418-2.098-0.226c-0.104,0.23-0.158,0.492-0.148,0.745c-0.621,0.113-1.246,0.206-1.872,0.266  c0.286-0.879,0.391-1.779-0.011-2.658c-0.683-1.499-1.826-1.28-1.978,0.308c-0.109,0.805-0.16,1.64-0.323,2.442  c-0.686-0.007-1.368-0.034-2.052-0.108c0.372-0.765,0.571-1.58,0.317-2.416c-0.082,0-0.462-1.091-0.91-1.151  c-0.731-0.101-1.056,0.535-1.139,1.134c-0.206,0.669-0.34,1.372-0.466,2.068c-0.709-0.153-1.412-0.338-2.111-0.567  c0.298-0.512,0.517-1.043,0.519-1.693c0.001-1.475-1.242-2.027-1.962-0.591c-0.25,0.427-0.504,0.892-0.728,1.372  c-0.654-0.322-1.266-0.686-1.832-1.089c0.854-0.908,1.688-1.909,1.947-3.164c0.108-0.527,0.54-1.938-0.332-2.105  c-0.745-0.148-1.091,0.63-1.513,1.28c-0.071,0.109-1.111,1.396-1.843,2.496c-0.549-0.565-1.046-1.171-1.483-1.821  c0.627-0.475,1.194-1.07,1.497-1.783c0.593-1.399-0.336-2.232-1.577-1.304c-0.375,0.293-0.758,0.627-1.105,0.988  c-0.277-0.615-0.518-1.254-0.722-1.912c0.254-0.103,0.484-0.244,0.714-0.395c0.789-0.517,1.294-0.61,0.688-1.564  c-0.087-0.143-0.517-0.55-1.14-0.515c-0.182,0.011-0.626,0.216-0.813,0.243c-0.131-0.734-0.229-1.481-0.283-2.242  c-0.354-4.87,0.028-11.072,4.001-14.458c3.827-3.26,9.523-4.368,14.422-3.854c5.261,0.553,10.598,3.978,13.581,8.299  c0.838,1.212,1.518,2.527,2.066,3.894c0.207,0.516,0.389,1.313,0.739,1.837c-0.587,0.808-1.133,1.656-1.573,2.594  c-1.708,3.633-2.685,7.748-2.665,11.823C42.424,57.502,37.375,60.512,34.739,61.268z M64.372,73.139  c-0.404-0.755-1.367-1.222-1.816-0.198c-0.079,0.138-0.143,0.283-0.194,0.435c-0.475,0.024-0.951,0.023-1.425,0.006  c0.131-0.363,0.211-0.72,0.037-1.199c-0.315-0.875-1.426-1.523-1.92-0.409c-0.233,0.41-0.341,0.895-0.356,1.377  c-0.517-0.09-1.025-0.202-1.528-0.339c0.285-0.706,0.731-1.242,0.734-2.065c0.003-1.202-0.965-1.967-1.838-0.902  c-0.445,0.658-0.828,1.521-0.741,2.347c-0.705-0.285-1.387-0.616-2.042-0.996c0.366-0.704,0.868-1.291,1.019-2.122  c0.24-1.324-0.647-2.156-1.709-1.127c-0.533,0.629-0.838,1.244-1.073,2.037c-0.002,0.006-0.003,0.015-0.004,0.021  c-0.6-0.468-1.163-0.983-1.686-1.54c0.568-0.316,1.082-0.453,1.368-1.165c0.346-0.863-0.052-2.084-1.161-1.584  c-0.601,0.203-1.123,0.651-1.497,1.165c-0.352-0.505-0.668-1.039-0.953-1.596c0.505-0.124,0.942-0.211,1.312-0.744  c0.549-0.793,0.409-2.003-0.774-1.803c-0.492,0.048-0.973,0.25-1.389,0.535c-0.043-0.123-0.094-0.242-0.134-0.367  c0.43-0.106,0.805-0.229,1.13-0.698c0.549-0.793,0.41-2.004-0.774-1.804c-0.317,0.031-0.626,0.128-0.918,0.268  c-0.781-4.162-0.174-8.668,1.634-12.404c2.688-5.56,8.503-8.378,14.506-8.419c5.776-0.04,11.412,2.124,14.267,7.394  c2.566,4.736,2.846,10.794,0.788,15.699C76.693,64.224,72.819,71.845,64.372,73.139z M78.414,39.76  c-0.51,0.808-1.178,1.526-1.461,2.349c-0.644-0.766-1.33-1.501-2.112-2.154c-7.024-5.869-18.313-5.657-25.232,0.067  c-0.298-1.255-1.021-2.562-1.524-3.5c-0.149-0.278-0.789-2.535-0.853-3.069c-0.211-1.77-0.338-3.563-0.14-5.342  c0.362-3.235,1.94-6.526,4.565-8.521c2.453-1.863,5.536-2.851,8.521-3.457c2.92-0.593,5.997-0.949,8.918-0.202  c3.187,0.815,6.155,2.635,8.355,5.078C82.229,26.317,82.083,33.942,78.414,39.76z"></path><path d="M84.224,43.522c-0.467-0.575-1.082-1.287-1.812-1.548c-1.681-0.602-1.185,1.729-0.973,2.56  c0.36,1.426,1.047,3.084,2.098,4.136c0.629,0.627,1.341,1.813,2.397,1.058c0.65-0.464,0.45-1.458,0.277-2.104  C85.789,46.18,85.182,44.705,84.224,43.522z"></path><path d="M85.795,39.269c1.065,0.338,1.892,0.455,2.987,0.384c1.624-0.105,1.913-1.616,0.81-2.608  c-0.997-0.693-2.454-0.957-3.642-0.665c-0.592,0.145-1.326,0.528-1.583,1.127C83.895,38.604,85.011,38.988,85.795,39.269z"></path></svg>