<svg fill="#0365C0" xmlns="http://www.w3.org/2000/svg" xmlns:xlink="http://www.w3.org/1999/xlink" version="1.1" x="0px" y="0px" viewBox="0 0 100 100" enable-background="new 0 0 100 100" xml:space="preserve"><path d="M82.056,50.379c-2.028-2.382-5.193-3.303-8.237-3.038c-2.082,0.181-6.313,0.604-6.817,3.134  c-0.142,0.708-0.129,1.806,0.549,2.263c0.771,0.521,2.316-0.46,3.092-0.682c2.283-0.649,4.861-0.923,7.058,0.169  c2.519,1.252,3.822,3.988,4.554,6.572c0.729,2.578,0.702,5.31-0.434,7.767c-0.571,1.238-1.379,2.354-2.309,3.348  c-0.996,1.063-2.686,1.897-2.918,3.437c-1.741-0.944-5.007-1.563-5.752-3.639c-0.98-2.734,3.283-7.253-0.045-9.126  c-1.147-0.646-2.378-0.17-3.592-0.525c-0.938-0.275-1.595-0.963-1.933-1.866c-0.747-2.002-0.362-4.32-0.451-6.408  c-0.081-1.887-0.742-5.018-3.284-4.505c-2.188,0.44-4.116,2.765-4.931,4.731c-1.004,2.426-0.659,5.229-2.201,7.474  c-0.92,1.341-2.261,2.062-3.615,2.882c-1.737,1.053-3.117,2.536-4.81,3.63c-2.973,1.924-6.667,2.216-9.614,4.171  c-1.464,0.971-2.719,2.215-4.207,3.164c-1.457,0.928-3.01,1.691-4.618,2.321c-1.535,0.6-3.112,1.086-4.695,1.543  c-1.609,0.464-3.171,0.756-4.044,2.343c-1.377,2.506-0.868,5.096,1.213,6.994c4.79,4.369,12.673-0.272,17.454-2.206  c4.091-1.653,8.223-3.208,12.384-4.678c1.996-0.705,3.998-1.39,6.007-2.056c1.876-0.623,3.841-1.522,5.853-1.468  c3.76,0.1,7.006,2.502,10.484,3.638c2.312,0.752,7.171,0.649,7.478-2.66c0.069-0.743-0.214-1.434-0.687-1.994  c0.731-0.611,1.428-1.266,2.084-1.957c1.361-1.436,2.561-3.039,3.494-4.785c1.856-3.472,2.541-7.583,0.863-11.265  C83.687,53.277,83.695,52.304,82.056,50.379z M72.369,76.368c-2.609-0.835-4.933-2.389-7.584-3.11  c-3.146-0.856-6.383-0.141-9.397,0.89c-0.18-1.295-1.424-2.796-2.869-2.617c-1.935,0.238,0.489,2.765,0.977,3.314  c-0.716,0.278-1.428,0.57-2.136,0.868c-0.126-1.081-0.413-2.05-1.188-2.839c-0.508-0.462-2.096-1.7-2.406-0.353  c-0.147,0.64,0.66,1.762,0.978,2.313c0.193,0.391,0.336,0.782,0.469,1.198c0.195,0.517,0.308,0.466-0.297,0.723  c-0.461,0.195-0.921,0.39-1.384,0.579c-0.098-0.904-1.459-2.428-2.329-1.343c-0.13,0.158-0.497,1.426-0.058,1.536  c0.051,0.153,0.147,0.28,0.185,0.439c0.091,0.395-1.474,0.754-1.868,0.898c-0.121-0.944-1.317-2.391-2.249-1.327  c-0.12,0.139-0.33,1.389-0.124,1.439c0.022,0.186,0.101,0.363,0.112,0.55c0.021,0.354-1.613,0.744-1.975,0.874  c-0.567,0.202-2.853,1.32-3.11,0.806c-0.26-0.516-0.667-1.356-1.339-1.368c-0.951-0.017-0.88,0.919-0.845,1.551  c0.011,0.22,0.003,0.443,0.031,0.661c0.086,0.622-0.813,0.747-1.318,0.987c0.076-0.679-0.31-1.465-0.745-1.963  c-1.132-1.294-1.518,0.833-1.587,1.54c-0.029,0.288,0.018,0.578-0.021,0.866c-0.107,0.816-0.359,0.763-1.162,1.035  c-1.398,0.477-2.987,0.868-4.454,0.481c-0.95-0.249-2.861-1.516-2.596-2.696c0.25-1.107,1.28-1.794,2.247-2.239  c2.173-1,4.628-1.094,6.792-2.099c3.254-1.511,5.466-4.529,8.808-5.79c3.122-1.178,6.347-1.619,9.033-3.752  c1.334-1.06,2.522-2.284,3.848-3.354c1.269-1.023,2.804-1.676,3.928-2.873c1.876-1.998,2.861-4.774,3.398-7.418  c0.188-0.917,0.325-1.85,0.365-2.786c-0.137,3.208-0.626,7.232,1.218,10.076c1.073,1.658,2.533,1.587,4.227,2.13  c1.352,0.433,1.657,1.451,1.293,2.733c-0.34,1.193-0.992,2.346-1.033,3.609c-0.06,1.848,1.781,2.577,3.177,3.302  c1.18,0.614,2.356,1.228,3.478,1.943c0.28,0.18,0.895,0.467,1.017,0.809C73.958,76.832,72.439,76.39,72.369,76.368  C69.132,75.333,76.478,77.681,72.369,76.368z"></path><path d="M77.211,62.425c0-0.312-2.368,0.979-2.553,1.18c-0.375,0.407-1.463,2.429-0.729,2.844c0.591,0.334,1.47-1.241,1.796-1.553  c0.689-0.697,1.633-0.374,2.443-0.236c1.838,0.313,3.116-1.215,2.436-2.912c-0.771-1.926-1.658-3.522-3.473-4.639  c-1.809-1.112-4.042-1.473-6.143-1.264c-0.464-0.275-3.162,0.757-2.456,1.152c0.803,0.45,1.996,0.269,2.881,0.402  c1.317,0.198,2.602,0.583,3.804,1.16c1.732,0.867,2.452,2.272,3.184,3.955C78.28,62.509,77.207,62.394,77.211,62.425z"></path><path d="M43.498,50.521c2.481-2.8,5.016-5.302,8.83-5.975c3.147-0.555,6.335-0.394,9.32-1.718c1.934-0.858,5.718-3.112,4.21-5.771  c-1.004-1.769-3.723-1.282-5.404-1.271c-2,0.014-4.104-0.047-6.044-0.579c-0.603-0.167-1.49-0.426-1.764-1.063  c-0.427-0.988,1.032-2.987,1.354-3.922c0.469-1.36,0.604-2.912,0.17-4.306c-0.479-1.538-1.69-1.89-3.143-2.088  c-1.44-0.196-2.725-0.836-3.727-1.892c-0.459-0.485-0.854-1.029-1.219-1.589c-0.19-0.289-0.372-0.583-0.552-0.878  c-0.307-0.505,0.268-0.788,0.707-1.047c1.313-0.775,2.983-0.743,4.387-1.321c1.602-0.66,3.103-1.616,4.853-1.84  c0.966-0.123,1.947,0.004,2.914,0.034c0.918,0.028,1.92-0.068,2.824,0.087c0.994,0.171,1.646,1.26,2.074,2.073  c1.015,1.93,1.715,4.272,1.798,6.461c0.064,1.69-0.104,3.378-0.607,4.997c-0.256,0.816-0.582,1.607-0.954,2.378  c-0.252,0.52-0.815,1.229-0.528,1.848c0.373,0.808,1.643,0.796,2.364,0.632c1.521-0.344,1.979-1.794,2.524-3.098  c1.428-3.414,1.646-6.933,0.789-10.521c-0.585-2.44-1.32-6.935-4.278-7.547c-3.182-0.659-6.542-1.23-9.793-0.813  c-1.658,0.212-3.024,0.931-4.56,1.531c-1.836,0.719-3.754,1.281-5.459,2.293c-0.388,0.231-0.764,0.484-1.119,0.763  c-0.284-0.345-0.586-0.676-0.915-0.979c-0.474-0.434-1.015-0.824-1.63-1.025c-1.069-0.349-2.079,0.081-2.826,0.863  c-1.641,1.718-2.39,4.479-2.61,6.788c-0.266,2.787,0.83,5.242,1.19,7.944c0.464,3.464-1.7,5.604-3.738,8.086  c-2.403,2.924-3.652,6.379-5.209,9.772c-3.148,6.866-10.125,11.154-12.945,18.22c-0.693,1.737-1.129,3.659-1.166,5.535  c-0.036,1.815,3.211,3.225,4.715,3.372c4.235,0.414,8.096-3.278,10.752-6.114C35.358,62.144,38.334,56.344,43.498,50.521z   M33.2,44.129c1.251-3.112,3.395-5.358,5.535-7.873c2.108-2.476,3.316-4.972,2.354-8.267c-0.564-1.931-1.222-3.84-1.55-5.83  c-0.221-1.345,1.121-3.129-0.042-4.251c1.902,1.835,1.784,4.767,3.061,6.951c1.017,1.74,2.973,1.854,4.729,2.4  c2.01,0.622,3.333,1.54,2.49,3.762c-0.51,1.349-1.372,2.663-1.159,4.167c0.182,1.28,0.967,2.005,2.11,2.501  c2.553,1.108,5.38,1.204,8.108,1.331c0.088,0.003,1.757,0.09,1.364,0.437c-0.446,0.393-1.264,0.507-1.818,0.639  c-2.188,0.521-4.409,0.264-6.596,0.798c-3.512,0.859-6.504,2.852-9.049,5.37c-0.585-0.734-2.563-2.313-3.476-1.192  c-0.679,0.833,0.394,1.447,0.886,1.948c0.072,0.074,0.614,0.466,0.604,0.478c0.491-0.123,0.32,0.53,0.146,0.728  c-0.298,0.337-0.59,0.68-0.88,1.023c-0.541-0.648-3.874-3.33-4.464-1.497c-0.196,0.582,1.597,2.099,1.637,2.052  c0.273,0.221,0.563,0.413,0.82,0.653c0.457,0.428,0.723,0.363,0.268,0.943c-0.41,0.521-0.818,1.047-1.224,1.573  c-0.596-0.556-3.111-1.543-2.852,0.191c0.081,0.531,0.686,0.851,1.003,1.246c0.118,0.149,0.298,0.271,0.397,0.434  c-0.38,0.484-0.744,0.979-1.098,1.483c-0.349-0.772-3.212-3.097-3.306-1.02c-0.023,0.54,0.618,1.256,0.938,1.669  c0.192,0.247,0.352,0.515,0.518,0.78c0.433,0.667,0.287,0.812-0.154,1.432c-2.735,3.855-5.689,8.124-9.634,10.845  c-1.268,0.874-3.021,1.772-4.551,1.013c-1.1-0.546-0.635-1.76-0.4-2.792c0.292-1.289,0.79-2.524,1.44-3.675  c2.494-4.416,6.828-7.356,9.816-11.392C31.399,50.185,31.975,47.178,33.2,44.129z"></path><path d="M59.976,25.234c-1.055,1.555-2.737,2.734-3.12,4.678c-0.174,0.885-0.182,2.45,0.485,3.168  c0.413,0.445,0.607-0.89,0.628-1.048c0.092-0.747,0.164-1.438,0.536-2.108c0.568-1.027,1.703-1.791,2.522-2.614  c1.033-1.036,1.449-2.151,1.605-3.603c0.218-1.961-0.336-5.676-3.13-5.146c-1.888,0.356-2.733,2.511-4.743,2.688  c-0.801,0.07-1.627,0.1-2.409,0.297c-0.934,0.234-0.89,0.77-0.007,1.053c2.166,0.694,4.202,0.349,6.088-0.827  c0.854-0.531,1.879-1.453,1.879,0.274C60.311,22.994,60.601,24.402,59.976,25.234z"></path></svg>