<svg fill="#0365C0" xmlns="http://www.w3.org/2000/svg" xmlns:xlink="http://www.w3.org/1999/xlink" version="1.1" x="0px" y="0px" viewBox="0 0 512 512" enable-background="new 0 0 512 512" xml:space="preserve"><path d="M498.5,131.4c-3.5-0.6-85.8-14.8-166,55.2c-34.9,30.6-38.9,84.8-8.9,123.1c-10.1,11.3-23.4,29.7-34,56  c-10.4-46.8-25.8-78.3-36.3-95.9c49.8-47.6,49.8-139-0.1-183.6C139.1-17.5,18.7,3.4,13.6,4.3C0.8,7.4-1.8,22.5,8.1,29.8  C59.2,61,31.4,195.7,85.4,267c29,39.8,90,55.2,145.5,20.7c16.4,29,45.3,96.7,41.4,207.6c-0.3,7.8,5.8,14.3,13.6,14.6  c6.1,0.1,13.7-3.8,14.6-13.6c-3.6-78,10.5-129.6,44.2-168.2c34.8,20.6,77.2,16.7,103.2-15c37.7-46.8,24.5-136,55.9-156.3  C514.4,149.7,510.3,133.3,498.5,131.4z M111.1,66.5c-5.9-5.1-14.8-4.5-19.9,1.4c-5.1,5.9-4.5,14.8,1.4,19.9  c81.1,70.8,114.4,149.3,123.9,175.7c-50.4,28.9-88.8,11.4-108.6-13.4C67.2,201.4,82.1,82.8,47.1,30.5  c39.7,0.5,115.3,11.3,187.1,76.6c36.5,33.2,38.3,95.7,5,136.3C225,207.6,188.9,134.3,111.1,66.5z M425.8,295.6  c-16.7,21.5-45.2,20.2-63.6,10.2c7.6-18,27.8-58.4,69.7-98c5.7-5.3,5.9-14.3,0.6-19.9c-5.4-5.7-14.3-5.9-19.9-0.6  c-39.3,37.1-61.1,74.7-72,97.7c-15.3-26.9-9.8-59.6,10.4-77.2c44.1-38.5,88.3-48,115.5-49.6C445.1,198.6,452.4,262.1,425.8,295.6z"></path></svg>