<svg fill="#C82606" xmlns="http://www.w3.org/2000/svg" version="1.0" viewBox="0 0 4096.000000 4096.000000" preserveAspectRatio="xMidYMid meet" x="0px" y="0px"><metadata>
Created by potrace 1.14, written by Peter Selinger 2001-2017
</metadata><g transform="translate(0.000000,4096.000000) scale(0.100000,-0.100000)" fill="#C82606" stroke="none"><path d="M28530 27370 c-884 -43 -1706 -291 -2455 -743 -199 -120 -384 -252 -670 -477 -226 -177 -504 -259 -779 -228 -174 19 -503 16 -646 -6 -225 -34 -367 -76 -590 -176 -151 -68 -190 -106 -190 -190 0 -43 22 -74 63 -89 12 -5 72 -14 132 -21 668 -71 1313 -338 1850 -766 135 -108 414 -386 517 -514 86 -109 225 -311 286 -416 100 -173 211 -421 272 -609 29 -89 53 -123 104 -146 105 -48 204 0 227 110 15 70 6 399 -16 586 -28 253 -83 512 -145 690 -89 255 -285 584 -490 820 -77 89 -113 170 -118 270 -9 162 41 260 189 372 557 420 1276 715 2009 822 269 40 360 46 715 46 285 0 382 -4 520 -20 94 -11 217 -20 275 -20 94 0 110 3 155 27 62 32 139 113 168 176 33 72 30 180 -6 254 -35 70 -111 141 -175 162 -103 33 -420 71 -724 86 -221 11 -248 10 -478 0z"></path><path d="M22640 24783 c-590 -44 -1140 -233 -1605 -551 -175 -120 -289 -215 -455 -382 -338 -338 -580 -720 -743 -1171 -25 -69 -55 -159 -65 -200 -56 -209 -356 -823 -640 -1309 -995 -1701 -2575 -3237 -4563 -4437 -929 -561 -2040 -1086 -2799 -1323 -74 -23 -167 -57 -207 -75 -241 -110 -420 -318 -499 -580 -24 -79 -27 -107 -28 -235 -1 -121 3 -159 22 -229 46 -168 125 -306 246 -427 157 -156 341 -239 581 -263 390 -38 787 -17 1255 65 267 46 1184 264 1825 434 3753 991 6764 2344 8874 3988 219 170 467 377 676 562 188 167 753 731 788 787 15 23 57 80 93 125 183 229 383 581 493 872 225 594 266 1263 115 1871 -146 586 -440 1102 -874 1535 -611 610 -1455 958 -2300 948 -80 -1 -165 -3 -190 -5z m2266 -2038 c101 -30 153 -89 209 -240 125 -335 178 -616 178 -950 0 -428 -91 -794 -299 -1206 -307 -608 -856 -1183 -1610 -1685 -153 -102 -207 -122 -292 -109 -190 28 -297 200 -235 380 23 69 89 130 288 267 314 217 540 405 776 645 464 474 724 963 788 1483 6 46 11 150 11 230 0 251 -30 425 -121 695 -54 159 -61 186 -57 241 5 84 44 145 125 201 93 64 149 75 239 48z"></path></g></svg>