<svg fill="#C82606" xmlns="http://www.w3.org/2000/svg" xmlns:xlink="http://www.w3.org/1999/xlink" version="1.1" x="0px" y="0px" viewBox="0 0 5 5" enable-background="new 0 0 5 5" xml:space="preserve"><g><path fill="#C82606" d="M4.479,2.015C4.468,1.808,4.39,1.573,4.257,1.352C4.038,0.985,3.718,0.739,3.459,0.739   c-0.056,0-0.104,0.011-0.15,0.031C3.013,0.845,2.28,1.339,1.675,1.763C1.299,2.025,0.815,2.207,0.811,2.209   C0.807,2.21,0.804,2.213,0.801,2.214C0.667,2.293,0.602,2.458,0.612,2.68c0.011,0.207,0.09,0.442,0.221,0.664   C0.964,3.562,1.135,3.743,1.312,3.85c0.113,0.068,0.224,0.104,0.322,0.104c0.064,0,0.123-0.015,0.177-0.043   c0.084-0.046,0.308-0.168,0.664-0.364l0.1,0.113c0.017,0.021,0.048,0.045,0.108,0.045c0.08,0,0.193-0.044,0.306-0.116   c0.077-0.052,0.144-0.11,0.188-0.168C3.203,3.383,3.232,3.332,3.23,3.284c0-0.005,0-0.009-0.002-0.013   c-0.002-0.015-0.008-0.026-0.016-0.04C3.21,3.228,3.206,3.224,3.203,3.22C3.195,3.205,3.187,3.188,3.177,3.166   C3.232,3.144,3.336,3.093,3.544,2.98c0.35-0.188,0.669-0.444,0.717-0.484c0.011-0.004,0.021-0.01,0.03-0.015   C4.423,2.402,4.489,2.236,4.479,2.015z M2.922,3.486C2.82,3.555,2.729,3.584,2.683,3.584c-0.003,0-0.004,0-0.005,0   c0.012-0.032,0.066-0.106,0.186-0.186C2.965,3.33,3.057,3.301,3.102,3.301c0.002,0,0.005,0,0.006,0   C3.096,3.333,3.039,3.409,2.922,3.486z M3.465,2.886h0.002C3.467,2.886,3.467,2.886,3.465,2.886L3.465,2.886z M3.486,2.875   c-0.007,0.003-0.013,0.007-0.02,0.011C3.46,2.889,3.396,2.912,3.279,2.836c-0.027-0.019-0.065-0.01-0.082,0.018   c-0.02,0.028-0.011,0.065,0.017,0.083S3.267,2.969,3.29,2.979C3.199,3.026,3.152,3.046,3.129,3.057   C3.122,3.038,3.115,3.021,3.108,3.002c0-0.001-0.001-0.004-0.001-0.007C3.089,2.94,3.075,2.886,3.074,2.839   C3.072,2.807,3.046,2.78,3.011,2.78C2.979,2.781,2.952,2.81,2.954,2.843c0.001,0.038,0.008,0.078,0.019,0.119   c-0.061,0.007-0.146,0.025-0.24,0.072C2.703,3.049,2.69,3.085,2.705,3.114c0.01,0.021,0.031,0.033,0.054,0.033   c0.01,0,0.019-0.001,0.026-0.005c0.094-0.047,0.177-0.06,0.225-0.063c0.014,0.038,0.028,0.074,0.044,0.107   C2.979,3.198,2.887,3.238,2.796,3.299C2.719,3.35,2.652,3.409,2.609,3.466C2.603,3.475,2.596,3.484,2.589,3.493L2.355,3.229   C2.334,3.204,2.295,3.201,2.27,3.224C2.246,3.246,2.243,3.284,2.265,3.31l0.128,0.144C2.05,3.642,1.835,3.759,1.753,3.805   c-0.096,0.052-0.23,0.032-0.379-0.058C1.347,3.731,1.32,3.713,1.294,3.693c0.055-0.042,0.14-0.102,0.199-0.118   c0.179-0.055,0.311-0.12,0.393-0.194c0.099-0.086,0.396-0.325,0.398-0.327C2.31,3.032,2.315,2.995,2.294,2.97   c-0.02-0.026-0.059-0.03-0.084-0.011C2.196,2.97,1.905,3.202,1.806,3.292C1.737,3.354,1.619,3.41,1.457,3.46   C1.366,3.488,1.25,3.576,1.2,3.613C1.104,3.524,1.014,3.41,0.938,3.282c-0.061-0.1-0.107-0.201-0.142-0.303   c0.001-0.003,0.001-0.006,0.002-0.01c0.004-0.028,0.091-0.073,0.178-0.094c0.033-0.006,0.054-0.038,0.046-0.07   C1.015,2.772,0.982,2.754,0.95,2.759C0.923,2.766,0.826,2.79,0.756,2.841C0.743,2.783,0.735,2.727,0.732,2.674   c-0.001-0.023-0.001-0.045,0-0.065C0.852,2.598,1.15,2.551,1.41,2.37c0.108-0.074,0.216-0.168,0.321-0.261   C1.937,1.933,2.148,1.748,2.35,1.713c0.034-0.006,0.056-0.037,0.05-0.069C2.395,1.61,2.362,1.589,2.33,1.595   c-0.235,0.04-0.461,0.236-0.679,0.426C1.55,2.108,1.444,2.201,1.342,2.271c-0.218,0.151-0.47,0.199-0.593,0.214   c0.02-0.075,0.056-0.133,0.109-0.166C0.916,2.298,1.372,2.12,1.744,1.861c0.289-0.203,0.979-0.684,1.383-0.887   C3.107,1.026,3.096,1.087,3.09,1.152C3.036,1.167,2.918,1.222,2.682,1.41C2.654,1.432,2.65,1.469,2.672,1.495   C2.684,1.51,2.701,1.519,2.719,1.519c0.014,0,0.026-0.006,0.037-0.014C2.94,1.358,3.043,1.302,3.091,1.28   c0.01,0.108,0.036,0.228,0.082,0.349L2.958,1.774C2.931,1.792,2.923,1.829,2.941,1.857c0.013,0.018,0.031,0.026,0.05,0.026   c0.012,0,0.024-0.004,0.033-0.011L3.22,1.742C3.246,1.8,3.277,1.858,3.312,1.916C3.319,1.93,3.328,1.941,3.336,1.955   C3.275,1.984,3.188,2.02,3.122,2.025C3.09,2.028,3.065,2.058,3.068,2.091c0.003,0.031,0.029,0.055,0.059,0.055   c0.003,0,0.005,0,0.007,0c0.097-0.009,0.207-0.059,0.27-0.091c0.049,0.065,0.1,0.126,0.151,0.18   C3.499,2.29,3.379,2.391,3.212,2.425C2.951,2.479,2.747,2.536,2.668,2.718C2.654,2.748,2.669,2.783,2.7,2.796   c0.008,0.003,0.016,0.006,0.023,0.006c0.023,0,0.046-0.015,0.055-0.037c0.051-0.116,0.194-0.166,0.459-0.222   c0.198-0.042,0.339-0.159,0.405-0.227c0.036,0.031,0.073,0.06,0.111,0.085C3.688,2.442,3.598,2.503,3.518,2.562   c-0.112,0.086-0.203,0.08-0.232,0.079c-0.002,0-0.004,0-0.007,0C3.245,2.64,3.218,2.665,3.216,2.699   C3.214,2.73,3.239,2.759,3.274,2.76h0.004c0.008,0.002,0.016,0.002,0.025,0.002c0.1,0,0.196-0.035,0.287-0.103   c0.102-0.076,0.227-0.156,0.28-0.19c0.055,0.025,0.108,0.043,0.162,0.053C3.897,2.62,3.696,2.762,3.486,2.875z M4.229,2.377   C4.194,2.398,4.154,2.409,4.11,2.409c-0.065,0-0.138-0.021-0.211-0.061C3.897,2.348,3.896,2.347,3.893,2.345   c-0.167-0.089-0.345-0.267-0.479-0.49C3.174,1.451,3.14,1.01,3.341,0.89c0.004-0.003,0.008-0.006,0.014-0.007l0,0   c0.03-0.015,0.065-0.023,0.104-0.023c0.215,0,0.5,0.228,0.695,0.554c0.123,0.204,0.193,0.42,0.204,0.608   C4.366,2.196,4.321,2.322,4.229,2.377z"></path><path fill="#C82606" d="M4.014,1.384C3.897,1.168,3.735,0.921,3.505,0.921c-0.037,0-0.073,0.006-0.11,0.02   C3.33,0.963,3.286,1.012,3.269,1.084C3.239,1.207,3.294,1.379,3.344,1.501C3.396,1.625,3.468,1.756,3.51,1.797   c0.019,0.021,0.035,0.05,0.056,0.086c0.044,0.076,0.103,0.181,0.247,0.305c0.106,0.089,0.191,0.132,0.265,0.132   s0.116-0.043,0.139-0.065c0.197-0.199,0.008-0.517-0.131-0.749C4.06,1.462,4.034,1.421,4.014,1.384z M4.13,2.17   C4.113,2.188,4.1,2.201,4.077,2.201c-0.024,0-0.08-0.016-0.186-0.106c-0.13-0.109-0.181-0.198-0.221-0.271   C3.646,1.781,3.626,1.745,3.595,1.713C3.541,1.658,3.347,1.28,3.387,1.112c0.009-0.04,0.03-0.054,0.048-0.059   c0.022-0.008,0.047-0.013,0.07-0.013c0.169,0,0.312,0.228,0.403,0.399C3.93,1.479,3.954,1.522,3.98,1.566   C4.1,1.766,4.263,2.036,4.13,2.17z"></path><path fill="#C82606" d="M3.78,1.367C3.718,1.25,3.65,1.191,3.584,1.191c-0.028,0-0.055,0.012-0.073,0.031   C3.485,1.25,3.474,1.29,3.476,1.337c0.004,0.078,0.054,0.143,0.109,0.216c0.038,0.05,0.081,0.105,0.119,0.178   C3.857,2.01,3.944,2.01,3.973,2.01c0.026,0,0.05-0.01,0.068-0.026c0.02-0.02,0.041-0.053,0.036-0.107   c-0.003-0.028-0.014-0.062-0.033-0.1C4.012,1.712,3.962,1.641,3.908,1.565C3.862,1.498,3.812,1.428,3.78,1.367z M3.954,1.876   C3.928,1.854,3.878,1.796,3.81,1.673C3.767,1.593,3.719,1.531,3.681,1.48C3.635,1.419,3.599,1.371,3.596,1.33   c0-0.004,0-0.008,0-0.012C3.61,1.33,3.639,1.358,3.674,1.424C3.71,1.49,3.762,1.563,3.81,1.635   c0.046,0.063,0.088,0.124,0.116,0.176C3.943,1.842,3.951,1.863,3.954,1.876z"></path><path fill="#C82606" d="M1.81,3.55L1.672,3.683C1.647,3.706,1.647,3.744,1.67,3.768c0.013,0.012,0.028,0.019,0.043,0.019   c0.017,0,0.031-0.006,0.043-0.018l0.138-0.132c0.119-0.116,0.323-0.129,0.325-0.13c0.034-0.001,0.06-0.029,0.058-0.062   C2.275,3.41,2.246,3.386,2.214,3.387C2.203,3.388,1.962,3.401,1.81,3.55z"></path><path fill="#C82606" d="M2.399,2.636L2.399,2.636C2.395,2.638,2.271,2.64,2.13,2.678C2.033,2.701,1.97,2.771,1.881,2.866   c-0.059,0.062-0.132,0.14-0.236,0.229C1.412,3.295,1.195,3.274,1.186,3.273C1.153,3.27,1.123,3.293,1.12,3.326   C1.116,3.358,1.139,3.39,1.172,3.394c0.003,0,0.015,0.001,0.038,0.001c0.084,0,0.296-0.021,0.514-0.207   c0.109-0.095,0.185-0.175,0.246-0.24C2.05,2.861,2.098,2.81,2.16,2.794C2.287,2.759,2.399,2.756,2.4,2.756   c0.034,0,0.061-0.027,0.06-0.062C2.46,2.663,2.433,2.636,2.399,2.636z"></path><path fill="#C82606" d="M1.465,2.867C1.479,2.838,1.469,2.801,1.44,2.784C1.411,2.769,1.375,2.779,1.357,2.81   C1.313,2.89,1.103,2.988,0.979,3.031c-0.03,0.011-0.048,0.046-0.037,0.077c0.009,0.024,0.032,0.04,0.058,0.04   c0.006,0,0.013-0.001,0.019-0.004C1.056,3.133,1.383,3.014,1.465,2.867z"></path><path fill="#C82606" d="M2.918,2.267c0.032-0.01,0.049-0.045,0.038-0.075c-0.009-0.032-0.044-0.05-0.076-0.04   C2.872,2.154,2.673,2.22,2.566,2.391c-0.018,0.027-0.01,0.063,0.019,0.082c0.011,0.007,0.021,0.009,0.032,0.009   c0.021,0,0.04-0.01,0.051-0.028C2.751,2.321,2.916,2.267,2.918,2.267z"></path><path fill="#C82606" d="M2.804,1.931C2.794,1.9,2.759,1.883,2.729,1.895C2.7,1.905,2.45,1.998,2.378,2.152   C2.344,2.229,2.258,2.265,2.177,2.3C2.138,2.314,2.102,2.33,2.069,2.349c-0.041,0.025-0.12,0.082-0.205,0.141   C1.782,2.547,1.67,2.625,1.646,2.638C1.617,2.646,1.6,2.678,1.607,2.708c0.007,0.028,0.031,0.047,0.059,0.047   c0.004,0,0.009-0.001,0.014-0.001c0.024-0.007,0.062-0.032,0.254-0.166c0.079-0.055,0.161-0.112,0.199-0.136   C2.156,2.438,2.188,2.424,2.222,2.41c0.094-0.04,0.211-0.088,0.266-0.207C2.53,2.109,2.705,2.031,2.769,2.009   C2.8,1.996,2.816,1.963,2.804,1.931z"></path><path fill="#C82606" d="M1.462,2.646c0.015,0,0.029-0.006,0.041-0.017C1.617,2.523,1.858,2.351,1.86,2.348   c0.027-0.019,0.034-0.057,0.015-0.084C1.854,2.236,1.818,2.231,1.79,2.25C1.781,2.258,1.539,2.431,1.421,2.541   C1.396,2.563,1.396,2.602,1.418,2.627C1.43,2.639,1.446,2.646,1.462,2.646z"></path><path fill="#C82606" d="M2.108,2.12c0.008,0,0.014-0.001,0.02-0.004c0.007-0.002,0.17-0.062,0.258-0.163   c0.039-0.045,0.142-0.11,0.305-0.191c0.015-0.007,0.021-0.011,0.027-0.014c0.027-0.017,0.038-0.052,0.021-0.082   C2.724,1.639,2.687,1.628,2.657,1.644c-0.003,0.002-0.011,0.006-0.02,0.01C2.512,1.716,2.36,1.799,2.294,1.875   C2.229,1.952,2.09,2.003,2.088,2.003C2.058,2.015,2.04,2.05,2.053,2.08C2.062,2.104,2.084,2.12,2.108,2.12z"></path></g></svg>